<?xml version="1.0" encoding="utf-8"?>
<!-- Generator: Adobe Illustrator 22.1.0, SVG Export Plug-In . SVG Version: 6.00 Build 0)  -->
<svg version="1.1" id="Layer_1" xmlns="http://www.w3.org/2000/svg" xmlns:xlink="http://www.w3.org/1999/xlink" x="0px" y="0px"
	 width="1012px" height="44.3px" viewBox="0 0 1012 44.3" style="enable-background:new 0 0 1012 44.3;" xml:space="preserve">
<style type="text/css">
	.st0{fill:#FC8019;}
	.st1{fill:#EE2A24;}
	.st2{fill:#111111;}
	.st3{fill:#FFC20E;}
	.st4{fill:#6950A1;}
	.st5{fill:#8DC63F;}
	.st6{fill:#009057;}
	.st7{fill:#FFFFFF;}
	.st8{fill:#050505;}
	.st9{fill:url(#SVGID_2_);stroke:#FCD109;stroke-width:9.400000e-02;}
	.st10{fill:#F8F3B5;stroke:#F8F3B5;stroke-width:9.400000e-02;}
	.st11{fill:#F7B402;stroke:#F7B402;stroke-width:9.400000e-02;}
	.st12{fill:#BDA727;stroke:#BDA727;stroke-width:9.400000e-02;}
	.st13{fill:#F7E62D;stroke:#F7E62D;stroke-width:9.400000e-02;}
	.st14{fill:url(#SVGID_3_);stroke:#FCD109;stroke-width:9.400000e-02;}
	.st15{fill:url(#SVGID_4_);stroke:#FCD109;stroke-width:9.400000e-02;}
	.st16{fill:url(#SVGID_5_);stroke:#FCD109;stroke-width:9.400000e-02;}
	.st17{fill:#0D69B3;stroke:#0D69B3;stroke-width:9.400000e-02;}
	.st18{fill:#107BD4;stroke:#107BD4;stroke-width:9.400000e-02;}
	.st19{fill:#FFFFFF;stroke:#FFFFFF;stroke-width:9.400000e-02;}
	.st20{clip-path:url(#SVGID_6_);}
	.st21{fill:none;stroke:#D1D1D1;stroke-width:2;}
	.st22{fill:#107BD4;stroke:#107BD4;stroke-width:0.101;}
</style>
<g>
	<g id="Mask_Group_3" transform="translate(495.416 428.601)">
		<g id="Uber_logo_2018" transform="translate(1.942 2.865)">
			<path id="Path_20" d="M-491.7-401.3c0.4,1,1,2,1.7,2.8c0.7,0.8,1.6,1.4,2.6,1.8c1,0.4,2.2,0.6,3.3,0.6c1.1,0,2.2-0.2,3.2-0.6
				c1-0.4,1.9-1,2.6-1.8c0.8-0.8,1.4-1.8,1.7-2.8c0.4-1.2,0.6-2.4,0.6-3.6v-20.7h5v33.5h-5v-3.1c-1.1,1.2-2.5,2.1-4,2.7
				c-1.6,0.6-3.2,1-4.9,1c-1.7,0-3.4-0.3-5-0.9c-1.5-0.6-2.9-1.5-4-2.7c-1.2-1.2-2.1-2.6-2.7-4.1c-0.7-1.7-1-3.5-1-5.4v-21h5v20.7
				C-492.3-403.7-492.1-402.4-491.7-401.3L-491.7-401.3z"/>
			<path id="Path_21" d="M-462.2-425.6v12.2c1.1-1.1,2.4-2,3.9-2.7c1.5-0.7,3.1-1,4.8-1c7.1,0,12.8,5.7,12.8,12.7c0,0,0,0,0,0
				c0,1.7-0.3,3.4-1,5c-2,4.7-6.7,7.8-11.8,7.8c-1.7,0-3.3-0.3-4.8-1c-1.5-0.6-2.8-1.5-3.9-2.7v3.1h-4.8v-33.5H-462.2z
				 M-461.6-400.9c0.4,1,1,1.9,1.8,2.7c0.8,0.8,1.7,1.4,2.7,1.8c1,0.5,2.2,0.7,3.3,0.7c1.1,0,2.2-0.2,3.3-0.7c1-0.4,1.9-1,2.7-1.8
				c0.8-0.8,1.4-1.7,1.8-2.7c0.5-1,0.7-2.2,0.7-3.3c0-1.1-0.2-2.3-0.7-3.3c-0.4-1-1-1.9-1.8-2.7c-0.8-0.8-1.7-1.4-2.7-1.8
				c-3.1-1.3-6.8-0.6-9.2,1.8c-0.8,0.8-1.4,1.7-1.8,2.7c-0.5,1.1-0.7,2.2-0.7,3.3C-462.3-403.1-462-402-461.6-400.9L-461.6-400.9z"
				/>
			<path id="Path_22" d="M-437.9-409.2c0.6-1.5,1.5-2.9,2.6-4c3.6-3.7,9.1-4.8,13.8-2.8c1.5,0.6,2.8,1.5,3.9,2.7
				c1.1,1.2,2,2.5,2.5,4c0.6,1.6,0.9,3.3,0.9,5v1.6H-434c0.2,1,0.5,1.9,1,2.8c0.5,0.8,1.1,1.6,1.8,2.2c0.7,0.6,1.5,1.1,2.4,1.5
				c0.9,0.4,1.9,0.5,2.9,0.5c2.8,0.1,5.4-1.3,7-3.6l3.5,2.6c-2.5,3.4-6.4,5.3-10.5,5.2c-1.7,0-3.5-0.3-5.1-1
				c-1.5-0.6-2.9-1.5-4.1-2.7c-1.2-1.2-2.1-2.5-2.8-4C-439.2-402.4-439.2-406-437.9-409.2L-437.9-409.2z M-431.2-411.1
				c-1.4,1.2-2.3,2.8-2.7,4.5h14.9c-0.3-1.8-1.3-3.4-2.7-4.5C-424.4-413.3-428.4-413.3-431.2-411.1L-431.2-411.1z"/>
			<path id="Path_23" d="M-405.1-410.5c-1.1,1.3-1.6,2.9-1.5,4.5v13.9h-4.8v-24.4h4.8v3c0.6-1,1.4-1.8,2.4-2.3
				c1.1-0.6,2.3-0.9,3.5-0.9h1.7v4.5h-2C-402.6-412.2-404.1-411.6-405.1-410.5L-405.1-410.5z"/>
		</g>
	</g>
</g>
<g id="swiggy-logo" transform="translate(1011.053 427.157)">
	<g id="Group_34" transform="translate(0 0)">
		<path id="Path_165" class="st0" d="M-848.8-382.8C-848.8-382.8-848.8-382.9-848.8-382.8c-2.6-3.2-4.9-6.5-7.1-9.8
			c-0.7-1-1.2-2.1-1.5-3.2c0.3-0.9,6-1.3,7.7-0.5c0.5,0.2,0.5,0.5,0.5,0.7c0,0.8,0,2.9,0,2.9c0,0.4,0.4,0.8,0.8,0.8
			c0.4,0,0.8-0.4,0.8-0.8l0-5.3l0,0c0-0.5-0.5-0.6-0.6-0.6c-0.9,0-2.8,0-4.8,0c-4.4,0-5.4,0.2-6.1-0.3c-1.6-1-4.3-8.2-4.3-12.2
			c0-8,6.5-14.5,14.5-14.5c7.4,0,13.6,5.5,14.4,12.9c0,0,0,0,0,0c0.2,1.8-9.5,2.1-11.4,1.6c-0.2-0.1-0.4-0.3-0.4-0.5
			c0-1.3,0-5.1,0-5.1c0-0.4-0.4-0.8-0.8-0.8c0,0,0,0,0,0l0,0c-0.4,0-0.8,0.4-0.8,0.8l0,6.9c0,0.3,0.2,0.5,0.5,0.6h6
			c3.2,0,4.5,0.4,5.4,1.1c0.7,0.6,0.9,1.6,0.6,2.4C-837-395.8-848.4-383.3-848.8-382.8z M-818-406.2c2.9,1.2,4.6,2.6,4.6,5.6
			c0,3.1-2.3,5-5.9,5c-2.6,0.1-5.1-1.3-6.4-3.6l-0.2-0.4l3.4-2l0.2,0.4c0.5,1.1,1.6,1.8,2.9,1.8c1.1,0,1.8-0.5,1.8-1.2
			c0-0.8-0.5-1.1-2.1-1.8l-0.8-0.4c-2.2-0.9-4.2-2.2-4.2-5.4c0-2.7,2.2-4.8,4.8-4.8c0.1,0,0.3,0,0.4,0c2.1-0.1,4.1,1,5.1,2.9
			l0.2,0.4l-3.3,2.1l-0.2-0.4c-0.6-1-1.1-1.2-1.7-1.2c-0.7,0-1.1,0.4-1.1,1c0,0.7,0.3,1,1.8,1.6L-818-406.2z M-793.8-405.6l2.4-6.7
			h4.1l-6.1,17h-0.9l-3.7-8c-0.2-0.4-0.4-0.8-0.5-1.2c-0.2,0.4-0.3,0.9-0.5,1.2l-3.9,8h-0.9l-6.2-17h4.4l2.4,6.7
			c0.2,0.4,0.3,1,0.5,1.4c0.2-0.5,0.4-1,0.6-1.5l3.2-6.8h0.9l3.2,6.8c0.2,0.5,0.4,1,0.6,1.5C-794.1-404.7-794-405.2-793.8-405.6
			L-793.8-405.6z M-782.5-395.8v-16.9h4.2v16.9L-782.5-395.8z M-764.6-401.5v-3.8h7.8v7.6l-0.2,0.1c-1.9,1.3-4.1,2-6.4,2
			c-5.4,0-9.1-3.6-9.1-8.7c-0.2-4.6,3.4-8.5,8-8.6c0.2,0,0.4,0,0.6,0c2.3-0.2,4.6,0.7,6.1,2.4l0.3,0.3l-2.8,2.8l-0.3-0.3
			c-0.8-0.9-2-1.4-3.3-1.3c-2.4,0-4.4,2-4.4,4.4c0,0.1,0,0.3,0,0.4c-0.2,2.5,1.7,4.7,4.2,4.8c0.2,0,0.4,0,0.6,0
			c0.9,0,1.8-0.1,2.7-0.4v-1.6L-764.6-401.5L-764.6-401.5z M-743.4-401.5v-3.8h7.8v7.6l-0.2,0.1c-1.9,1.3-4.1,2-6.4,2
			c-5.4,0-9.1-3.6-9.1-8.7c-0.2-4.6,3.4-8.5,8-8.6c0.2,0,0.4,0,0.6,0c2.3-0.2,4.6,0.7,6.2,2.4l0.3,0.3l-2.8,2.8l-0.3-0.3
			c-0.8-0.9-2-1.4-3.3-1.3c-2.4,0-4.4,2-4.4,4.4c0,0.1,0,0.3,0,0.4c-0.2,2.5,1.7,4.7,4.2,4.8c0.2,0,0.4,0,0.6,0
			c0.9,0,1.8-0.1,2.7-0.4v-1.6L-743.4-401.5L-743.4-401.5z M-720.4-412.7h4.4l-6,11.2v5.7h-4.2v-5.4l-6.4-11.5h4.7l2.9,5.4
			c0.3,0.6,0.6,1.3,0.9,2c0.3-0.7,0.5-1.3,0.9-2L-720.4-412.7z"/>
	</g>
</g>
<path id="Oyo_Rooms-Logo.wine" class="st1" d="M744.9,38.2c8.5,0.1,15.3-6.8,15.4-15.2S753.5,7.7,745,7.6s-15.3,6.8-15.4,15.2
	c0,0,0,0.1,0,0.1C729.6,31.3,736.4,38.2,744.9,38.2z M744.9,17.5c3,0,5.5,2.4,5.5,5.4s-2.4,5.5-5.4,5.5s-5.5-2.4-5.5-5.4
	c0,0,0,0,0,0C739.4,19.9,741.9,17.5,744.9,17.5z M773.5,17.1l-4.7-9.3h-10.9l10.2,20.4v9.6h10.8v-9.6l10.2-20.4h-10.9L773.5,17.1z
	 M801.7,38.2c8.5,0.1,15.3-6.8,15.4-15.2c0.1-8.5-6.8-15.3-15.2-15.4s-15.3,6.8-15.4,15.2c0,0,0,0.1,0,0.1
	C786.5,31.3,793.3,38.2,801.7,38.2z M801.7,17.5c3,0,5.5,2.4,5.5,5.4c0,3-2.4,5.5-5.4,5.5s-5.5-2.4-5.5-5.4c0,0,0,0,0,0
	C796.3,19.9,798.7,17.5,801.7,17.5z"/>
<g>
	<g id="Mask_Group_12" transform="translate(611.282 507.642)">
		<g id="treebo-new-logo-black" transform="translate(3.277 9.964)">
			<g id="Group_35" transform="translate(48.824 6.686)">
				<path id="Path_166" class="st2" d="M-238.8-494.9c-1.9,0-3.6-1.3-4-3.1h5.3c2.6,0,5.2-1.5,5.2-4.5c-0.1-2-1.3-3.9-3.2-4.7
					c-0.9-0.4-1.9-0.6-2.9-0.6h0c-0.2,0-0.3,0-0.5,0c-4.6,0.1-8.2,3.9-8.1,8.5c0.1,4.4,3.7,8,8.1,8.1c2,0.1,3.9-0.6,5.5-1.9
					l-2.8-2.7C-236.9-495.2-237.8-494.8-238.8-494.9L-238.8-494.9z M-238.8-504.3c0.1,0,0.2,0,0.3,0c0.1,0,0.1,0,0.2,0
					c0,0,0.1,0,0.1,0c1.2,0.2,2,0.9,2,1.7c0,0.7-0.5,1.3-2.3,1.3h-4.3C-242.3-503.1-240.7-504.3-238.8-504.3L-238.8-504.3z
					 M-223.3-494.9c-1.9,0-3.6-1.3-4-3.1h5.3c2.6,0,5.2-1.5,5.2-4.5c-0.1-2-1.3-3.9-3.2-4.7c-0.9-0.4-1.9-0.6-2.9-0.6h0
					c-0.2,0-0.3,0-0.5,0c-4.6,0.1-8.2,3.9-8.1,8.5c0.1,4.4,3.7,8,8.1,8.1c2,0.1,3.9-0.6,5.5-1.9l-2.8-2.7
					C-221.4-495.2-222.3-494.8-223.3-494.9L-223.3-494.9z M-223.3-504.3c0.1,0,0.2,0,0.3,0c0.1,0,0.1,0,0.2,0c0,0,0.1,0,0.1,0
					c1.2,0.2,2,0.9,2,1.7c0,0.7-0.5,1.3-2.3,1.3h-4.3C-226.8-503.1-225.2-504.3-223.3-504.3L-223.3-504.3z M-248.1-507.5
					c-1.8,0-3.6,0.9-4.6,2.4c-0.7-1.5-2.1-2.4-3.7-2.4v15.8h4.1v-7.8c0-2.7,1.1-4,3.6-4h1.8v-4L-248.1-507.5L-248.1-507.5z
					 M-206.6-507.8c-1.7,0-3.4,0.6-4.6,1.8v-5.6h-4.1v19.9c1.4,0,2.7-0.7,3.5-1.9c1.3,1.4,3.2,2.3,5.1,2.3h0.2
					c4.3-0.2,7.7-3.8,7.6-8.1c0,0,0-0.1,0-0.1c0.2-4.3-3.1-8-7.4-8.3C-206.5-507.8-206.5-507.8-206.6-507.8L-206.6-507.8z
					 M-207.1-495.1c-2.3-0.1-4.2-2.1-4.1-4.5c-0.1-2.4,1.7-4.4,4.1-4.5c2.4,0.1,4.2,2.1,4.1,4.5c0,0,0,0,0,0.1
					C-203-497.2-204.7-495.2-207.1-495.1C-207.1-495.1-207.1-495.1-207.1-495.1L-207.1-495.1z M-181.3-499.4
					c-0.1,4.6-3.9,8.3-8.5,8.2c-4.6-0.1-8.3-3.9-8.2-8.5s3.9-8.3,8.5-8.2c0,0,0,0,0,0C-184.9-507.8-181.2-504-181.3-499.4z
					 M-189.6-504.1c-2.5,0-4.5,2-4.5,4.5c0,2.5,2,4.5,4.5,4.5c2.5,0,4.5-2,4.5-4.5c0-1.2-0.5-2.3-1.3-3.1
					C-187.3-503.6-188.5-504.1-189.6-504.1z M-263.4-498.4v-13.1h-4v13.1c0,4.3,2.4,7.1,7,6.6v-3.6
					C-262.4-495.4-263.4-496.2-263.4-498.4z"/>
				<path id="Path_167" class="st2" d="M-267.5-511.5h4v12h-4V-511.5z"/>
				<path id="Path_168" class="st2" d="M-267.5-499.5v-4c2.2,0,4,1.8,4,4c0,0,0,0,0,0H-267.5z M-259.4-503.5h-4c0-2.2,1.8-4,4-4
					c0,0,0,0,0,0L-259.4-503.5z M-271.5-503.5c4.4,0,8-3.6,8-8h-4c0,2.2-1.8,4-4,4"/>
				<path id="Path_169" class="st2" d="M-271.5-507.5h12.1v4h-12.1"/>
			</g>
			<g id="Group_36">
				<path id="Path_170" class="st3" d="M-268.4-506.9c5.9-4.1,14-2.7,18.1,3.2c4.1,5.8,2.7,13.9-3.1,18c0,0-0.1,0-0.1,0.1
					L-268.4-506.9z"/>
				<path id="Path_171" class="st4" d="M-235.4-482.5c-5.9,4.1-14,2.6-18-3.3c-4-5.8-2.6-13.8,3.1-17.9L-235.4-482.5z"/>
				<path id="Path_172" class="st5" d="M-264.1-478.3c-4.1-5.9-2.7-14,3.2-18.1c5.9-4.1,14-2.7,18.1,3.2L-264.1-478.3z"/>
				<path id="Path_173" class="st6" d="M-239.6-511.1c4.1,5.8,2.7,13.9-3.1,18c0,0-0.1,0-0.1,0.1c-5.9,4.1-14,2.7-18.1-3.2
					L-239.6-511.1z"/>
				
					<ellipse id="Ellipse_2" transform="matrix(0.23 -0.9732 0.9732 0.23 288.6468 -626.7354)" class="st7" cx="-251.8" cy="-495.8" rx="1.7" ry="1.7"/>
			</g>
		</g>
	</g>
</g>
<g id="Group_37" transform="translate(237.574 513.718)">
	<path id="Path_133" class="st8" d="M647.5-475c-4.3,0-8.7,0-13,0c-1.9,0-3.6-1.1-4.4-2.7c-0.4-0.8-0.6-1.7-0.6-2.6v-25.5
		c0-1.4,0.5-2.7,1.5-3.7c1-1,2.3-1.5,3.7-1.5h25.7c1.4,0,2.7,0.6,3.7,1.5c1,1,1.5,2.3,1.5,3.7c0,8.5,0,17,0,25.6
		c0,2.5-1.7,4.7-4.1,5.2c-0.3,0.1-0.7,0.1-1,0.1L647.5-475L647.5-475z M646.2-495.1L646.2-495.1c0.1-1.2,0.1-2.3,0.1-3.5
		c0-0.4-0.2-0.5-0.5-0.5c-0.7,0-1.4,0-2.1,0c-0.4,0-0.5,0.1-0.5,0.5c0,2.2,0,4.3,0,6.5c0,0.9-0.5,1.7-1.2,2.1
		c-0.8,0.5-1.7,0.4-2.5,0c-0.8-0.5-1.2-1.3-1.2-2.2v-6.3c0-0.5-0.1-0.6-0.6-0.6c-0.7,0-1.3,0-2,0c-0.5,0-0.6,0-0.6,0.5
		c0,2,0,3.9,0,5.9c0,0.7,0.1,1.3,0.2,2c0.2,1.3,1.1,2.4,2.3,2.9c1.7,0.8,3.7,0.9,5.5,0.3c1.8-0.5,3-2,3.1-3.8
		C646.3-492.4,646.3-493.8,646.2-495.1L646.2-495.1z M654.7-487c2.1,0.1,4.1-0.9,5.1-2.7c0.2-0.3,0.1-0.5-0.2-0.6
		c-0.6-0.3-1.1-0.5-1.7-0.8c-0.1-0.1-0.3-0.1-0.4-0.1c-0.1,0-0.3,0.1-0.3,0.3c-0.4,0.7-1.1,1.1-1.8,1.2c-0.7,0.1-1.5,0-2.1-0.5
		c-1.1-0.8-1.7-2.1-1.4-3.5c0.2-1.3,1.2-2.3,2.4-2.7c1.2-0.3,2.4,0.2,3,1.3c0.1,0.1,0.3,0.2,0.5,0.2c0.6-0.3,1.3-0.6,1.9-0.9
		c0.2-0.1,0.3-0.3,0.2-0.5c-0.4-0.6-0.9-1.1-1.4-1.6c-1.4-1.1-3.3-1.4-5-0.9c-1.7,0.4-3.2,1.6-4,3.2c-0.8,1.6-0.8,3.5,0,5.1
		C650.3-488.4,652.4-487,654.7-487L654.7-487z"/>
	<path id="Path_134" class="st8" d="M702.2-504.3c0.1,0,0.2-0.1,0.3-0.2c1.8-2.1,5.6-1.6,7.5,0.5c1.1,1.3,1.6,3,1.5,4.7
		c-0.1,1.7-1,3.3-2.3,4.4c-1.8,1.5-4.4,1.5-6.3,0.2c-0.3-0.2-0.5-0.4-0.7-0.6l-0.1,0.1c0,0.3,0,0.5,0,0.8c0,0.4-0.1,0.5-0.5,0.5
		c-0.6,0-1.2,0-1.8,0c-0.3,0-0.4-0.1-0.4-0.4c0-5,0-10.1,0-15.1c0-0.4,0.1-0.5,0.5-0.5c0.6,0,1.2,0,1.8,0c0.4,0,0.5,0.1,0.5,0.5
		c0,1.7,0,3.4,0,5C702.2-504.6,702.2-504.5,702.2-504.3L702.2-504.3z M708.7-500c0-0.9-0.3-1.8-1-2.4c-0.6-0.6-1.5-1-2.4-0.9
		c-0.9,0-1.8,0.4-2.4,1.1c-0.6,0.7-0.9,1.6-0.8,2.5c0,0.9,0.4,1.8,1,2.5c0.7,0.6,1.6,1,2.5,0.9C707.5-496.6,708.8-498.2,708.7-500
		L708.7-500z"/>
	<path id="Path_135" class="st8" d="M688.7-504.2c0,1.5,0.1,3,0,4.5c0,0.8-0.2,1.7-0.5,2.5c-0.5,1.5-1.8,2.7-3.4,3.1
		c-1.7,0.6-3.6,0.4-5.2-0.4c-1.8-0.9-2.9-2.7-2.9-4.8c-0.1-3,0-6,0-9c0-0.3,0-0.7,0-1c0-0.3,0.1-0.4,0.4-0.4c0.7,0,1.4,0,2.1,0
		c0.3,0,0.4,0.2,0.4,0.5c0,3.1,0,6.1,0,9.2v0.4c-0.1,1.2,0.7,2.4,1.8,2.8c1.2,0.5,2.6,0.2,3.5-0.8c0.5-0.6,0.8-1.3,0.8-2
		c0-3.2,0-6.4,0-9.6c0-0.4,0.1-0.5,0.5-0.5c0.7,0,1.4,0,2.1,0c0.4,0,0.4,0.3,0.4,0.5C688.7-507.6,688.7-505.9,688.7-504.2z"/>
	<path id="Path_136" class="st8" d="M722.3-495.5c-0.1,0.1-0.3,0.2-0.4,0.3c-1.2,1.2-2.9,1.6-4.5,1.2c-2.9-0.7-4.9-3.4-4.5-6.4
		c0.1-1.8,0.9-3.4,2.4-4.5c1.8-1.3,4.3-1.3,6.2-0.1c0.2,0.2,0.3,0.3,0.5,0.5c0.1,0.1,0.2,0.1,0.2,0.1c0.1-0.1,0.1-0.2,0.1-0.3
		c0-1,0-1,1-1c0.4,0,0.8,0,1.1,0c0.3,0,0.4,0.1,0.4,0.4v0.6c0,3.4,0,6.7,0,10.1c0,0.4-0.1,0.5-0.5,0.5c-0.6,0-1.1,0-1.7,0
		c-0.4,0-0.5-0.2-0.5-0.5C722.3-495,722.3-495.2,722.3-495.5z M719-496.4c0.9,0,1.8-0.3,2.4-1c0.6-0.6,1-1.5,1-2.4
		c0-0.9-0.3-1.8-0.9-2.5c-0.6-0.7-1.5-1.1-2.4-1.1c-0.9,0-1.8,0.4-2.4,1c-0.6,0.6-1,1.5-1,2.4c-0.1,0.9,0.3,1.8,0.9,2.5
		C717.2-496.8,718-496.4,719-496.4L719-496.4z"/>
	<path id="Path_137" class="st8" d="M707.5-485.3c0.1-0.1,0.3-0.2,0.4-0.4c0.8-0.9,2-1.4,3.2-1.3c1.2,0.1,2.3,0.7,3,1.7
		c0.2,0.3,0.3,0.4,0.6,0.1c1.3-1.5,3.4-2.1,5.3-1.5c1.9,0.6,3.2,2.4,3.1,4.5c0,2.2,0,4.3,0,6.5c0,0.3-0.1,0.5-0.5,0.4
		c-0.3,0-0.7,0-1,0c-0.3,0-0.4-0.1-0.4-0.4c0-2,0-4,0-6c0-0.5-0.1-1-0.2-1.4c-0.2-1.1-1.1-1.9-2.2-2c-1.1-0.2-2.2,0.3-2.8,1.2
		c-0.4,0.6-0.7,1.4-0.6,2.2c0,1.9,0,3.9,0,5.8c0,0.5,0,0.6-0.6,0.6c-0.3,0-0.5,0-0.8,0c-0.4,0-0.5-0.2-0.5-0.5c0-1.9,0.1-3.8,0-5.7
		c0-0.7-0.1-1.3-0.3-1.9c-0.3-1-1.2-1.6-2.3-1.6c-1.1-0.1-2.2,0.5-2.8,1.5c-0.3,0.6-0.5,1.3-0.4,2c0,1.9,0,3.8,0,5.7
		c0,0.4-0.1,0.6-0.6,0.6c-0.3,0-0.6,0-0.9,0c-0.3,0-0.5-0.1-0.5-0.5c0-3.5,0-6.9,0-10.4c0-0.3,0.1-0.5,0.4-0.5h1
		c0.4,0,0.5,0.2,0.5,0.5c0,0.3,0,0.5-0.1,0.8L707.5-485.3z"/>
	<path id="Path_138" class="st8" d="M726.8-485.1c0.1-0.1,0.3-0.2,0.4-0.3c1.3-1.4,3.3-1.9,5.1-1.4c2.7,0.7,4.5,3.3,4.3,6.1
		c-0.1,2.2-1.4,4.2-3.4,5.1c-2,1-4.5,0.5-6-1.1c-0.1-0.1-0.2-0.2-0.3-0.2c0,0.1-0.1,0.2-0.1,0.4c0,1.8,0,3.5,0,5.3
		c0,0.3-0.1,0.5-0.5,0.5c-0.3,0-0.7,0-1,0c-0.3,0-0.4-0.1-0.4-0.5c0-4.2,0-8.3,0-12.5c0-0.8,0-1.7,0-2.5c0-0.3,0.1-0.5,0.4-0.5
		c0.3,0,0.7,0,1,0c0.4,0,0.5,0.1,0.5,0.5C726.8-485.9,726.8-485.5,726.8-485.1z M734.6-481c0-0.3,0-0.6-0.1-0.8
		c-0.1-0.3-0.2-0.7-0.3-1c-0.5-1.2-1.6-2-2.9-2.3c-1.3-0.2-2.6,0.2-3.5,1.1c-0.9,1-1.3,2.3-1.2,3.6c0.2,1.7,1.4,3.1,3.1,3.5
		c1.2,0.3,2.5,0,3.5-0.9C734.2-478.6,734.7-479.8,734.6-481L734.6-481z"/>
	<path id="Path_139" class="st8" d="M730-504.2c0.1-0.1,0.2-0.2,0.4-0.3c1.8-1.8,4.7-1.9,6.5-0.1c0.2,0.1,0.3,0.3,0.4,0.5
		c0.6,0.9,0.9,2,0.8,3.1c0,2.1,0,4.3,0,6.4c0,0.3-0.1,0.4-0.4,0.4h-2c-0.3,0-0.4-0.2-0.4-0.4c0-2,0-3.9,0-5.9c0-0.8-0.2-1.5-0.7-2.1
		c-1-1-2.6-1.1-3.7-0.1c-0.3,0.3-0.5,0.6-0.7,1c-0.2,0.5-0.2,1-0.3,1.4c0,1.9,0,3.8,0,5.7c0,0.3-0.1,0.4-0.4,0.4h-1.9
		c-0.3,0-0.4-0.1-0.4-0.5c0-3.3,0-6.6,0-10c0-1.1,0-1.1,1.1-1.1c0.4,0,0.8,0,1.1,0c0.5,0,0.5,0.1,0.5,0.6
		C730-504.8,730-504.6,730-504.2z"/>
	<path id="Path_140" class="st8" d="M684-477c2,0.1,3.9-0.8,5.2-2.3c0.3-0.3,0.5-0.4,0.8-0.1c0.2,0.2,0.5,0.4,0.7,0.6
		c0.2,0.2,0.2,0.4,0,0.6c-1,1.2-2.2,2-3.7,2.5c-1.6,0.6-3.4,0.7-5.1,0.3c-2.9-0.7-5.1-3-5.7-5.9c-0.5-2.3,0-4.7,1.3-6.6
		c0.9-1.3,2.1-2.3,3.6-2.8c2.7-1.1,5.8-0.6,8.1,1.2c0.5,0.4,0.9,0.9,1.4,1.4c0.2,0.2,0.2,0.4,0,0.6c-0.3,0.3-0.6,0.5-0.9,0.8
		c-0.2,0.2-0.3,0.2-0.5-0.1c-1.4-1.8-3.7-2.8-5.9-2.4c-1.9,0.2-3.6,1.4-4.5,3.1c-1.1,2-1,4.5,0.3,6.4C680.1-478,682-477,684-477
		L684-477z"/>
	<path id="Path_141" class="st8" d="M747.2-476.9c-0.1,0.1-0.2,0.2-0.3,0.3c-1,1.1-2.6,1.7-4.1,1.5c-2.5-0.2-4.5-2-5-4.4
		c-0.6-2.5,0.4-5.2,2.6-6.6c2.1-1.3,4.8-0.9,6.5,0.7c0.1,0.1,0.2,0.2,0.4,0.2c0-0.1,0-0.3,0.1-0.4c0,0,0-0.1,0-0.1
		c-0.1-0.9,0-0.9,0.9-0.9c1.1,0,1-0.1,1,1c0,3.3,0,6.5,0,9.8c0,0.4-0.1,0.6-0.5,0.5c-0.3,0-0.6,0-0.9,0c-0.3,0-0.5-0.1-0.4-0.5
		c0-0.3,0-0.6,0-1L747.2-476.9z M743.5-476.9c2.2,0,4-1.7,4-3.8c0-0.1,0-0.1,0-0.2c0.2-2.2-1.5-4.1-3.7-4.3
		c-2.2-0.2-4.1,1.5-4.3,3.7c0,0.2,0,0.4,0,0.6c-0.1,2.2,1.6,4,3.7,4.1C743.3-476.9,743.4-476.9,743.5-476.9L743.5-476.9z"/>
	<path id="Path_142" class="st8" d="M698.1-475.1c-1.6,0-3.1-0.5-4.2-1.6c-1.1-1.1-1.8-2.6-1.8-4.1c-0.1-1.6,0.5-3.1,1.6-4.3
		c1.1-1.2,2.6-1.8,4.2-1.8c1.6-0.1,3.1,0.5,4.2,1.6c1.1,1.1,1.8,2.6,1.8,4.1c0.1,1.6-0.5,3.2-1.6,4.4
		C701.3-475.7,699.8-475.1,698.1-475.1L698.1-475.1z M698-476.9c1.1,0,2.2-0.5,2.9-1.2c0.8-0.8,1.2-1.9,1.2-3c0-2.2-1.8-4.1-4-4.1
		c-2.3,0.1-4,1.9-4,4.2C694.1-478.8,695.8-477,698-476.9L698-476.9z"/>
	<path id="Path_143" class="st8" d="M763.3-486.7c0.8-0.2,1.2,0.2,1.4,0.9c0.9,2.3,1.9,4.5,2.8,6.8c0.1,0.2,0.2,0.5,0.4,0.7
		c0.1-0.2,0.2-0.5,0.3-0.7c0.9-2.4,1.7-4.8,2.6-7.2c0.1-0.4,0.4-0.6,0.8-0.5c0.3,0,0.7,0,1,0c0.3,0,0.5,0.1,0.3,0.5
		c-0.4,1.1-0.9,2.3-1.3,3.4c-1,2.6-1.9,5.2-2.9,7.8c-0.4,1-0.8,1.9-1.3,2.8c-0.9,1.5-2.7,2.1-4.2,1.4c-0.3,0-0.4-0.3-0.4-0.6
		c0,0,0,0,0-0.1c0.1-0.3,0.1-0.6,0.2-0.9c0-0.2,0.2-0.3,0.4-0.2c1.6,0.7,2.6-0.3,3.2-1.6c0.5-0.8,0.5-1.8,0-2.6
		c-0.9-1.9-1.7-3.8-2.5-5.7c-0.6-1.3-1.1-2.6-1.7-3.9c-0.1-0.3-0.1-0.5,0.3-0.4C762.9-486.7,763.1-486.7,763.3-486.7z"/>
	<path id="Path_144" class="st8" d="M753.3-485.3c0.1-0.1,0.3-0.2,0.4-0.3c0.9-1.1,2.3-1.6,3.7-1.4c2.3,0.1,4.1,2.1,4,4.4
		c0,0,0,0,0,0c0,1.6,0,3.2,0,4.8c0,0.6,0,1.3,0,1.9c0,0.3-0.1,0.5-0.5,0.4c-0.3,0-0.6,0-0.9,0c-0.4,0-0.5-0.1-0.5-0.5
		c0-2,0-3.9,0-5.9c0.1-0.9-0.2-1.8-0.8-2.5c-1.2-1.2-3.1-1.2-4.3,0c-0.3,0.3-0.5,0.7-0.7,1.1c-0.2,0.5-0.3,1.1-0.3,1.6
		c0,1.9,0,3.8,0,5.7c0,0.5-0.1,0.6-0.6,0.6c-0.3,0-0.6,0-0.9,0c-0.3,0-0.4-0.1-0.4-0.5c0-3.3,0-6.5,0-9.8c0-1.1,0-1.1,1.1-1.1
		c0.9,0,0.9,0,0.8,0.9C753.3-485.7,753.3-485.5,753.3-485.3z"/>
	<path id="Path_145" class="st8" d="M693.6-504.3c0.1-0.1,0.2-0.2,0.3-0.3c0.9-1.2,2.5-1.7,3.9-1.2c0.2,0.1,0.3,0.2,0.3,0.4
		c0,0.7-0.1,1.3-0.2,2c0,0.1-0.3,0.2-0.4,0.2c-0.4,0-0.7-0.1-1.1-0.1c-1.4,0-2.5,1-2.6,2.4c-0.1,0.3-0.1,0.7-0.1,1
		c0,1.8,0,3.5,0,5.3c0,0.3-0.1,0.4-0.4,0.4h-2c-0.3,0-0.4-0.1-0.4-0.4v-10.6c0-0.3,0.2-0.4,0.5-0.4c0.6,0,1.2,0,1.8,0
		c0.3,0,0.4,0.2,0.4,0.5S693.6-504.7,693.6-504.3z"/>
</g>
<linearGradient id="SVGID_2_" gradientUnits="userSpaceOnUse" x1="657.4597" y1="-139.332" x2="657.4597" y2="-107.6893" gradientTransform="matrix(1 0 0 1 0.14 146.453)">
	<stop  offset="0" style="stop-color:#F7E830"/>
	<stop  offset="1" style="stop-color:#FDCB06"/>
</linearGradient>
<path class="st9" d="M676.8,7.3c0-0.1,0-0.1-0.1-0.2c-12.8,0-25.5,0-38.3,0c0,0-0.1,0.1-0.1,0.1c0,9.9,0,19.8,0,29.7
	c0.1,0.5,0.4,1,0.8,1.4c0,0,0.1,0,0.1,0c0.2,0.2,0.5,0.3,0.8,0.4c0.2,0,0.4,0.1,0.6,0.1h15.8c0.2,0,0.3,0,0.5,0c0,0,0-0.1,0-0.1
	c0,0,0-0.1,0-0.1c0.3-1.9,0.7-3.8,1-5.7l0-0.2c-1.5,0-2.9,0-4.4,0c-0.4,0-0.7,0-1.1,0c-0.6,0-1.2,0-1.8-0.1c-0.8,0-1.5-0.1-2.3-0.1
	c-0.6-0.1-1.2,0-1.8-0.1c-0.4,0-0.8,0-1.2,0c-0.6-0.1-1.3,0-1.9-0.1c-0.7,0-1.4-0.1-2-0.1c0,0,0,0,0,0c0.2,0,0.4,0,0.7,0
	c0.5-0.1,1,0,1.5-0.1c0.5,0,1-0.1,1.6-0.1c0.5-0.1,0.9,0,1.4-0.1c0.5,0,1.1-0.1,1.6-0.1c0.4-0.1,0.9,0,1.3-0.1c0.5,0,1-0.1,1.6-0.1
	c0.5-0.1,1,0,1.5-0.1c0-0.2-0.1-0.4-0.1-0.6c0-0.1-0.2-0.1-0.3-0.1c-1.2-0.2-2.3-0.3-3.5-0.5c0.1-0.1,0.2,0,0.3,0
	c0.9-0.1,1.8-0.2,2.7-0.2c0.2,0,0.4,0,0.6-0.1c-0.1-0.3-0.1-0.6-0.3-0.8c-1.9-0.3-3.9-0.6-5.8-0.9c0.5-0.1,1-0.1,1.5-0.2l0,0
	c1.6-0.2,3.2-0.4,4.8-0.5c2,0,4.1,0,6.1,0c0.1,0,0.2,0,0.2-0.1c0.2-0.9,0.3-1.7,0.5-2.6c0.2-1.2,0.6-2.4,1.2-3.5
	c0.9-1.8,2.3-3.3,4-4.3c1.6-0.9,3.5-1.4,5.3-1.5c0.6-0.1,1.2,0,1.8,0c0.4,0.1,0.8,0.2,1.1,0.5c0.3,0.2,0.4,0.5,0.5,0.8
	c0.2,0.7,0.4,1.5,0.5,2.2c0,0.3,0.1,0.6-0.1,0.9c-0.2,0.3-0.5,0.4-0.7,0.5c-1,0.3-2.1,0-3.2,0.3c-0.9,0.2-1.7,0.7-2.2,1.3
	c-0.6,0.8-1,1.8-1.2,2.8c-0.1,0.9-0.3,1.8-0.5,2.7c1,0,2.1,0,3.1,0c0.4,0,0.8,0.2,1,0.6c0.2,0.5,0.2,1.1,0.1,1.6
	c-0.1,0.6-0.2,1.2-0.5,1.7c-0.2,0.5-0.6,0.9-1.1,1c-0.3,0.1-0.5,0.1-0.8,0.1c-0.9,0-1.8,0-2.7,0c-0.1,0.7-0.2,1.3-0.4,2
	c-0.2,1.3-0.5,2.6-0.7,3.9c0,0,0,0.1,0,0.2c0.4,0,0.9,0,1.3,0c3.2,0,6.3,0,9.5,0c0.3,0,0.7-0.1,1-0.2c0.2-0.1,0.3-0.2,0.4-0.3
	c0.2-0.1,0.2-0.3,0.3-0.4c0.1-0.2,0.3-0.5,0.3-0.8c0,0,0.1,0,0.1,0C676.8,27.1,676.8,17.2,676.8,7.3z"/>
<path class="st10" d="M643.4,0.8c0.5-0.1,0.9,0,1.4-0.1c8.8,0,17.6,0,26.4,0c0.5,0,1,0.3,1.5,0.4c0.4,0.2,0.8,0.3,1.2,0.4
	c0.1,0,0.1,0.1,0.2,0.2c0,0.7,0,1.4,0,2.1c0,0.2,0,0.4,0,0.6c0.1,0,0.2,0.1,0.2,0.2c0.4,0.2,0.7,0.4,1,0.6c0.5,0.3,1,0.6,1.5,1
	c0,0.1,0,0.3,0,0.4c0,0.2,0,0.3,0,0.5c-12.8,0-25.5,0-38.3,0c0-0.2,0-0.4-0.1-0.5c0-0.1-0.1-0.3,0.1-0.4c0.5-0.4,1.1-0.7,1.6-1.1
	c0.3-0.2,0.6-0.4,1-0.6c0.1-0.1,0-0.2,0-0.4c0-0.8,0-1.6,0-2.3c0.2-0.2,0.5-0.3,0.8-0.4C642.4,1.2,642.9,1,643.4,0.8 M643.5,0.9
	c-0.7,0.3-1.4,0.5-2.1,0.8c-0.1,0-0.1,0.1-0.2,0.2c0,0,0,0.1,0,0.2c0,0.6,0,1.3,0,1.9c0,0.2,0,0.3,0,0.5c-0.1,0.1-0.1,0.1-0.2,0.2
	c-0.8,0.5-1.5,1.1-2.3,1.6c-0.1,0.1-0.3,0.2-0.2,0.4c0,0.1,0,0.2,0.1,0.2c1.7,0,3.4,0,5.1,0c2.5,0,5,0,7.5,0l0,0c0.1,0,0.2,0,0.3,0
	c4.6,0,9.1,0,13.7,0c1.4,0,2.9,0,4.3,0c2.4,0,4.7,0,7.1,0c0.1,0,0.1-0.1,0.1-0.2c0-0.1,0-0.2-0.1-0.3c-0.4-0.2-0.7-0.5-1.1-0.7
	c-0.1-0.1-0.3-0.2-0.4-0.3c-0.4-0.2-0.7-0.5-1.1-0.7c-0.1,0-0.1-0.1-0.2-0.2c0-0.1,0-0.2,0-0.4c0-0.7,0-1.4,0-2.1
	c0-0.1,0-0.2-0.1-0.3c-0.6-0.2-1.3-0.5-1.9-0.7c-0.2-0.1-0.4-0.2-0.6-0.2h-27.5C643.7,0.8,643.6,0.8,643.5,0.9L643.5,0.9z"/>
<path class="st11" d="M641.2,2c0.5,0.2,1,0.3,1.5,0.5c0.3,0.1,0.3,0.4,0.5,0.6c-0.1,0.1-0.2,0.2-0.4,0.3c-0.5,0.3-1,0.7-1.5,1
	c-0.1-0.1,0-0.3,0-0.5C641.2,3.3,641.2,2.6,641.2,2z M672.5,2.5c0.5-0.2,1-0.3,1.5-0.5c0,0.7,0,1.4,0,2.1c0,0.1,0,0.2,0,0.4
	c-0.4-0.3-0.8-0.6-1.3-0.9c-0.2-0.2-0.4-0.3-0.6-0.4C672.2,2.9,672.3,2.6,672.5,2.5L672.5,2.5z"/>
<path class="st12" d="M649.4,2.7c0.6-0.1,1.3,0.4,1.2,1c0,0.6-0.6,1.1-1.2,1c-0.2-0.1-0.5-0.2-0.6-0.4c-0.2-0.3-0.2-0.7-0.1-1
	C648.8,3,649.1,2.8,649.4,2.7L649.4,2.7z M664.8,3c0.2-0.3,0.6-0.4,1-0.3c0.3,0.1,0.5,0.3,0.7,0.5c0.2,0.5,0.1,1.1-0.4,1.3
	c-0.4,0.2-0.9,0.1-1.2-0.2C664.5,4,664.5,3.4,664.8,3z"/>
<path class="st13" d="M642.7,3.4c0.1-0.1,0.3-0.2,0.4-0.3l0,0c0,0.3,0,0.6,0,0.8c0,0.8,0,1.7,0,2.5c-1.6,0-3.1,0-4.7,0
	c0-0.2,0.1-0.3,0.2-0.4c0.8-0.5,1.5-1,2.3-1.6c0.1-0.1,0.2-0.1,0.2-0.2C641.7,4,642.2,3.7,642.7,3.4z M672,3.3c0-0.1,0-0.1,0.1-0.2
	c0.2,0.2,0.4,0.3,0.6,0.4c0.4,0.3,0.8,0.6,1.3,0.9c0.1,0.1,0.1,0.1,0.2,0.2c0.4,0.2,0.7,0.5,1.1,0.7c0.1,0.1,0.3,0.2,0.4,0.3
	c0.4,0.2,0.7,0.5,1.1,0.7c0.1,0.1,0.1,0.2,0.1,0.3c-1.6,0-3.1,0-4.7,0c0-0.2,0-0.4,0-0.6C672,5,672,4.1,672,3.3L672,3.3z"/>
<radialGradient id="SVGID_3_" cx="657.2947" cy="-124.8998" r="25.7378" gradientTransform="matrix(1 0 0 1 0.14 146.453)" gradientUnits="userSpaceOnUse">
	<stop  offset="0.596" style="stop-color:#F29405"/>
	<stop  offset="0.736" style="stop-color:#F7D01E"/>
	<stop  offset="1" style="stop-color:#FDCB06"/>
</radialGradient>
<path class="st14" d="M676.7,6.5c-1.6,0-3.1,0-4.7,0c0-0.2,0-0.4,0-0.6c0-0.9,0-1.7,0-2.6c0-0.1,0-0.1,0.1-0.2
	c0.1-0.2,0.2-0.5,0.5-0.6c0.5-0.2,1-0.3,1.5-0.5c0-0.1,0-0.2-0.1-0.3c-0.6-0.2-1.3-0.5-1.9-0.7c-0.2-0.1-0.4-0.2-0.6-0.2h-27.5
	c-0.1,0-0.2,0.1-0.3,0.1c-0.7,0.3-1.4,0.5-2.1,0.8c-0.1,0-0.1,0.1-0.2,0.2c0,0,0,0.1,0,0.2c0.5,0.2,1,0.3,1.5,0.5
	c0.3,0.1,0.3,0.4,0.5,0.6l0,0c0,0.3,0,0.6,0,0.8c0,0.8,0,1.7,0,2.5c-1.6,0-3.1,0-4.7,0c0,0.1,0,0.2,0.1,0.2c1.7,0,3.4,0,5.1,0
	c2.5,0,5,0,7.5,0l0,0c0.1,0,0.2,0,0.3,0c4.6,0,9.1,0,13.7,0c1.4,0,2.9,0,4.3,0c2.4,0,4.7,0,7.1,0C676.7,6.6,676.8,6.6,676.7,6.5
	L676.7,6.5z M648.7,3.3c0.1-0.3,0.4-0.5,0.7-0.6c0.6-0.1,1.3,0.4,1.2,1c0,0.6-0.6,1.1-1.2,1c-0.2-0.1-0.5-0.2-0.6-0.4
	C648.6,4,648.6,3.6,648.7,3.3L648.7,3.3z M664.8,3c0.2-0.3,0.6-0.4,1-0.3c0.3,0.1,0.5,0.3,0.7,0.5c0.2,0.5,0.1,1.1-0.4,1.3
	c-0.4,0.2-0.9,0.1-1.2-0.2C664.5,4,664.5,3.4,664.8,3z"/>
<linearGradient id="SVGID_4_" gradientUnits="userSpaceOnUse" x1="666.2645" y1="-138.19" x2="666.2735" y2="-136.6916" gradientTransform="matrix(1 0 0 1 0.14 146.453)">
	<stop  offset="0" style="stop-color:#FADA1C"/>
	<stop  offset="1" style="stop-color:#FDCB06"/>
</linearGradient>
<path class="st15" d="M666.2,8.9c0.1,0-0.4-0.4-0.3-0.5c0.1,0,0.4-0.2,0.8,0c0.4,0.2,0.3,0.7,0.3,0.9c-0.1,0.2-0.2,0.3-0.3,0.5
	c-0.1,0-0.2,0.1-0.3,0.1c0-0.3-0.1-0.3-0.1-0.6L666.2,8.9z"/>
<linearGradient id="SVGID_5_" gradientUnits="userSpaceOnUse" x1="2643.363" y1="-138.2618" x2="2643.3718" y2="-136.7634" gradientTransform="matrix(-1 0 0 1 3292.1426 146.453)">
	<stop  offset="0" style="stop-color:#FADA1C"/>
	<stop  offset="1" style="stop-color:#FDCB06"/>
</linearGradient>
<path class="st16" d="M649,9.1c0,0.3-0.2,0.3-0.1,0.6c-0.1,0-0.2-0.1-0.3-0.1c-0.1-0.1-0.2-0.2-0.3-0.5c0-0.2-0.1-0.7,0.3-0.9
	s0.7,0,0.8,0c0.1,0-0.4,0.5-0.3,0.5L649,9.1L649,9.1z"/>
<path class="st12" d="M665.5,12.3c0.1-0.1,0.1-0.1,0.2-0.1c-0.6,1.4-1.4,2.8-2.5,3.9c-0.1,0.1-0.2,0.2-0.4,0.3
	c-0.1,0.1-0.3,0.2-0.4,0.3c-0.1,0.1-0.2,0.2-0.4,0.3c-0.3,0.2-0.6,0.4-0.9,0.5c-0.6,0.3-1.3,0.5-2,0.6c-0.3,0-0.5,0.1-0.8,0.1
	c-0.3,0.1-0.7,0-1,0c-0.2,0-0.4-0.1-0.5-0.1c-0.2,0-0.3,0-0.5-0.1c-0.2,0-0.3-0.1-0.5-0.1c-2.5-0.8-4.9-2.7-5.6-5.2
	c0-0.2,0-0.3,0-0.5c0.1,0.2,0.2,0.3,0.2,0.4c1,2.2,3,3.9,5.3,4.4c0.2,0.1,0.4,0.1,0.6,0.1c0.2,0,0.3,0,0.5,0c0.6,0,1.1,0,1.7,0
	c0.1,0,0.1,0,0.2,0c0.9,0,1.8-0.3,2.7-0.7c0.2-0.1,0.3-0.2,0.5-0.2c0.1-0.1,0.3-0.2,0.4-0.2c0.1-0.1,0.3-0.2,0.4-0.3
	c1-0.8,1.9-1.8,2.4-3C665.3,12.7,665.4,12.5,665.5,12.3z"/>
<path class="st17" d="M664.6,17.1c1.6-0.9,3.5-1.4,5.3-1.5c0.6-0.1,1.2,0,1.8,0c0.4,0.1,0.8,0.2,1.1,0.5c-0.2,0-0.3-0.1-0.5-0.1
	c-0.4-0.1-0.9-0.1-1.3-0.1c-1.3,0-2.6,0.1-3.9,0.5c-0.7,0.2-1.3,0.4-1.9,0.8c-1,0.6-2,1.3-2.7,2.2c-1.3,1.5-2.1,3.5-2.5,5.5
	c-0.2,1.1-0.4,2.1-0.6,3.2c-0.3,0-0.5,0-0.8,0c-1.2,0-2.4,0-3.6,0c-0.3,0-0.5,0-0.8,0c-2.2,0-4.3,0-6.5,0l0,0
	c1.6-0.2,3.2-0.4,4.8-0.5c2,0,4.1,0,6.1,0c0.1,0,0.2,0,0.2-0.1c0.2-0.9,0.3-1.7,0.5-2.6c0.2-1.2,0.6-2.4,1.2-3.5
	C661.5,19.6,662.9,18.1,664.6,17.1z"/>
<path class="st18" d="M667.1,16.4c1.3-0.4,2.6-0.5,3.9-0.5c0.4,0,0.9,0,1.3,0.1c0.2,0,0.3,0.1,0.5,0.1c0.3,0.2,0.4,0.5,0.5,0.8
	c0.2,0.7,0.4,1.5,0.5,2.2c0,0.3,0.1,0.6-0.1,0.9c-0.2,0.3-0.5,0.4-0.7,0.5c-1,0.3-2.1,0-3.2,0.3c-0.9,0.2-1.7,0.7-2.2,1.3
	c-0.6,0.8-1,1.8-1.2,2.8c-0.1,0.9-0.3,1.8-0.5,2.7c-0.1,0.2-0.1,0.4-0.1,0.6c1,0,2,0,3.1,0c0.4,0,0.8,0,1.2,0
	c0.2,0.5,0.2,1.1,0.1,1.6c-0.1,0.6-0.2,1.2-0.5,1.7c-0.2,0.5-0.6,0.9-1.1,1c-0.3,0.1-0.5,0.1-0.8,0.1c-0.9,0-1.8,0-2.7,0
	c-0.1,0.7-0.2,1.3-0.4,2c-0.2,1.3-0.5,2.6-0.7,3.9c0,0,0,0.1,0,0.2v0c-2.4,0-4.7,0-7.1,0c0,0,0-0.1,0-0.1c0,0,0-0.1,0-0.1
	c0,0,0,0.1,0,0.2c0.1,0,0.4,0.1,0.4-0.1c0.4-2,0.7-4,1.1-6c-0.1,0-0.3,0-0.4,0c0,0.1,0,0.2-0.1,0.2l0-0.2c-1.5,0-2.9,0-4.4,0
	c-0.4,0-0.7,0-1.1,0c-0.6,0-1.2,0-1.8-0.1c-0.8,0-1.5-0.1-2.3-0.1c-0.6-0.1-1.2,0-1.8-0.1c-0.4,0-0.8,0-1.2,0
	c-0.6-0.1-1.3,0-1.9-0.1c-0.7,0-1.4-0.1-2-0.1c0,0,0,0,0,0c0.2,0,0.4,0,0.7,0c0.5-0.1,1,0,1.5-0.1c0.5,0,1-0.1,1.6-0.1
	c0.5-0.1,0.9,0,1.4-0.1c0.5,0,1.1-0.1,1.6-0.1c0.4-0.1,0.9,0,1.3-0.1c0.5,0,1-0.1,1.6-0.1c0.5-0.1,1,0,1.5-0.1
	c0-0.2-0.1-0.4-0.1-0.6c0-0.1-0.2-0.1-0.3-0.1c-1.2-0.2-2.3-0.3-3.5-0.5c0.1-0.1,0.2,0,0.3,0c0.9-0.1,1.8-0.2,2.7-0.2
	c0.2,0,0.4,0,0.6-0.1c-0.1-0.3-0.1-0.6-0.3-0.8c-1.9-0.3-3.9-0.6-5.8-0.9c0.5-0.1,1-0.1,1.5-0.2c2.2,0,4.3,0,6.5,0
	c0.3,0,0.5,0,0.8,0c1.2,0,2.4,0,3.6,0c0.3,0,0.5,0,0.8,0c0.2-1.1,0.4-2.1,0.6-3.2c0.4-2,1.2-4,2.5-5.5c0.8-0.9,1.7-1.7,2.7-2.2
	C665.8,16.9,666.4,16.6,667.1,16.4z"/>
<path class="st17" d="M665.9,27.6c1,0,2.1,0,3.1,0c0.4,0,0.8,0.2,1,0.6c-0.4,0-0.8,0-1.2,0c-1,0-2,0-3.1,0
	C665.8,28,665.9,27.8,665.9,27.6L665.9,27.6z M658,32.6c0.2,0,0.3,0,0.4,0c-0.4,2-0.7,4-1.1,6c0,0.2-0.3,0.1-0.4,0.1
	c0,0,0-0.1,0-0.2c0.3-1.9,0.7-3.8,1-5.7C658,32.8,658,32.7,658,32.6L658,32.6z"/>
<path class="st19" d="M666.4,9c0-0.1,0-0.2,0-0.3l0,0c-0.1-0.2-0.3-0.5-0.5-0.5c-0.2,0-0.4,0-0.5,0.2c-0.2,0.3-0.1,0.7-0.1,1
	c0,0,0,0.1,0,0.1c0,0.2,0,0.4-0.1,0.7c0,0.1,0,0.1,0,0.2c-0.1,0.5-0.3,1-0.5,1.5c0,0.1-0.1,0.1-0.1,0.2c-0.2,0.3-0.4,0.5-0.6,0.8
	c0,0-0.1,0.1-0.1,0.1c-0.1,0.2-0.3,0.3-0.4,0.5c0,0-0.1,0-0.1,0.1c-0.2,0.2-0.4,0.3-0.6,0.5c0,0-0.1,0-0.1,0.1
	c-1.4,0.9-3.1,1.3-4.7,1.3c-1.4,0-2.8-0.3-4-0.9c0,0-0.1,0-0.1,0c-0.2-0.1-0.4-0.2-0.6-0.3c0,0-0.1,0-0.1-0.1
	c-0.2-0.1-0.4-0.2-0.6-0.4c-0.1-0.1-0.1-0.1-0.2-0.1c-0.2-0.2-0.4-0.3-0.6-0.5c0,0-0.1-0.1-0.1-0.1c-0.6-0.6-1-1.4-1.3-2.2
	c-0.2-0.6-0.2-1.3-0.2-2c-0.2-0.3-0.6-0.5-0.9-0.3c-0.1,0.1-0.2,0.3-0.3,0.4c-0.2,1.8,0.6,3.5,1.8,4.8c0,0,0,0.1,0.1,0.1
	c0.2,0.2,0.4,0.4,0.6,0.6c0,0,0.1,0.1,0.1,0.1c0.2,0.2,0.4,0.3,0.7,0.5c0,0,0.1,0.1,0.1,0.1c0.3,0.2,0.6,0.4,0.9,0.5
	c0,0,0.1,0,0.1,0.1c1,0.5,2.1,0.8,3.3,0.9c0.1,0,0.2,0,0.4,0c0.5,0,1.1,0,1.6,0c1.7-0.1,3.4-0.5,4.8-1.5l0,0c0,0,0.1-0.1,0.1-0.1
	c0.2-0.2,0.4-0.3,0.7-0.5c0,0,0.1-0.1,0.2-0.1c0.2-0.3,0.5-0.5,0.7-0.8l0,0c0,0,0-0.1,0.1-0.1c0.2-0.2,0.3-0.5,0.5-0.8
	c0,0,0,0,0-0.1l0,0c0,0,0.1-0.1,0.1-0.1c0.3-0.6,0.6-1.2,0.7-1.9c0,0,0.1,0,0.1-0.1c0-0.2,0.1-0.4,0.1-0.6
	C666.4,9.5,666.4,9.3,666.4,9L666.4,9z"/>
<g>
	<defs>
		<path id="SVGID_1_" d="M666.4,9c0-0.1,0-0.2,0-0.3l0,0c-0.1-0.2-0.3-0.5-0.5-0.5c-0.2,0-0.4,0-0.5,0.2c-0.2,0.3-0.1,0.7-0.1,1
			c0,0,0,0.1,0,0.1c0,0.2,0,0.4-0.1,0.7c0,0.1,0,0.1,0,0.2c-0.1,0.5-0.3,1-0.5,1.5c0,0.1-0.1,0.1-0.1,0.2c-0.2,0.3-0.4,0.5-0.6,0.8
			c0,0-0.1,0.1-0.1,0.1c-0.1,0.2-0.3,0.3-0.4,0.5c0,0-0.1,0-0.1,0.1c-0.2,0.2-0.4,0.3-0.6,0.5c0,0-0.1,0-0.1,0.1
			c-1.4,0.9-3.1,1.3-4.7,1.3c-1.4,0-2.8-0.3-4-0.9c0,0-0.1,0-0.1,0c-0.2-0.1-0.4-0.2-0.6-0.3c0,0-0.1,0-0.1-0.1
			c-0.2-0.1-0.4-0.2-0.6-0.4c-0.1-0.1-0.1-0.1-0.2-0.1c-0.2-0.2-0.4-0.3-0.6-0.5c0,0-0.1-0.1-0.1-0.1c-0.6-0.6-1-1.4-1.3-2.2
			c-0.2-0.6-0.2-1.3-0.2-2c-0.2-0.3-0.6-0.5-0.9-0.3c-0.1,0.1-0.2,0.3-0.3,0.4c-0.2,1.8,0.6,3.5,1.8,4.8c0,0,0,0.1,0.1,0.1
			c0.2,0.2,0.4,0.4,0.6,0.6c0,0,0.1,0.1,0.1,0.1c0.2,0.2,0.4,0.3,0.7,0.5c0,0,0.1,0.1,0.1,0.1c0.3,0.2,0.6,0.4,0.9,0.5
			c0,0,0.1,0,0.1,0.1c1,0.5,2.1,0.8,3.3,0.9c0.1,0,0.2,0,0.4,0c0.5,0,1.1,0,1.6,0c1.7-0.1,3.4-0.5,4.8-1.5l0,0c0,0,0.1-0.1,0.1-0.1
			c0.2-0.2,0.4-0.3,0.7-0.5c0,0,0.1-0.1,0.2-0.1c0.2-0.3,0.5-0.5,0.7-0.8l0,0c0,0,0-0.1,0.1-0.1c0.2-0.2,0.3-0.5,0.5-0.8
			c0,0,0,0,0-0.1l0,0c0,0,0.1-0.1,0.1-0.1c0.3-0.6,0.6-1.2,0.7-1.9c0,0,0.1,0,0.1-0.1c0-0.2,0.1-0.4,0.1-0.6
			C666.4,9.5,666.4,9.3,666.4,9L666.4,9z"/>
	</defs>
	<clipPath id="SVGID_6_">
		<use xlink:href="#SVGID_1_"  style="overflow:visible;"/>
	</clipPath>
	<g class="st20">
		<path class="st21" d="M648.4,8.8c0.4,0.1,1.4-0.2,1.7,0.1 M648.7,10.1c0.4-0.1,1.3-0.5,1.7-0.3 M649.1,11.5
			c0.2,0.1,0.6-0.3,0.8-0.4c0.3-0.2,0.6-0.3,0.9-0.3 M649.7,12.9c0.2-0.3,0.5-0.5,0.8-0.8c0.3-0.2,1.1-0.8,1.5-0.6 M650.3,13.9
			c0.2-0.2,0.3-0.5,0.6-0.7c0.3-0.2,0.8-0.3,1.1-0.4 M651.4,14.6c0.1-0.5,0.6-1.1,1.1-1.1 M652.1,15.4c0.3,0,0.5-0.6,0.7-0.8
			c0.3-0.3,0.5-0.4,0.9-0.5 M653.7,16c0-0.4,0.4-1.5,0.8-1.4 M654.8,16.4c0-0.4,0.2-1.8,0.8-1.8 M656,17.1c-0.1-0.6-0.1-1.5,0.4-2
			 M657.5,17.2c-0.1-0.5-0.6-1.6,0-2 M659.1,16.9c-0.2-0.3-0.4-1.4-0.3-1.7 M660.6,16.6c-0.2-0.3-0.4-0.7-0.5-1.1c0-0.2,0-0.6,0-0.8
			 M661.8,16.1c-0.4-0.3-0.5-1.3-0.4-1.7 M663,15.5c-0.3-0.6-0.6-1.1-0.6-1.8 M664.2,14.4c-0.5-0.3-1-0.9-1-1.5 M665.5,13.4
			c-0.7-0.2-1.5-0.8-1.9-1.3 M666.1,12.2c-0.5-0.1-2.1-0.8-2-1.4 M666.6,11c-0.7-0.3-1.7-0.5-2.3-1 M667,9.8c-0.4,0-1.1-0.2-1.5-0.3
			c-0.5-0.1-1-0.3-1.4-0.4 M666.5,8.7c-0.8,0.1-1.6-0.2-2.4-0.5"/>
	</g>
</g>
<g>
	<path class="st22" d="M558.5,11.3c0.8-0.1,1.7-0.2,2.3,0.3c0.4,0.3,0.6,0.9,0.5,1.4c0,0.8-0.4,1.7-1.1,2.1
		c-0.6,0.4-1.4,0.4-2.1,0.3c-0.5-0.1-1-0.3-1.2-0.8C556.3,13.4,557,11.6,558.5,11.3L558.5,11.3z M535.1,12.2c0-0.4,0.4-0.8,0.9-0.8
		c3.4,0,6.8,0,10.2,0c0.4,0,0.8,0.1,0.9,0.5c0.3,0.4,0,0.9,0,1.4c-0.1,0.6-0.1,1.4-0.8,1.7c-2.5,0.1-4.9,0-7.4,0
		c-0.2,1.6-0.5,3.1-0.7,4.7c0,0.1,0,0.2,0,0.3c1.8,0,3.6,0,5.4,0c0.5,0,1,0.4,1,0.9c0,0.5-0.2,1.1-0.2,1.6c-0.1,0.4-0.4,0.7-0.7,0.8
		c-2,0-4.1,0-6.1,0c-0.3,2.2-0.7,4.4-1,6.7c0,0.4-0.4,0.8-0.8,0.8c-0.8,0-1.7,0-2.5,0c-0.5,0-1-0.6-0.8-1.1
		C533.3,23.8,534.2,18,535.1,12.2L535.1,12.2z M550.1,11.4c0.8-0.1,1.5,0,2.3,0c0.5,0,0.9,0.3,1,0.8c0,0.4-0.1,0.8-0.1,1.1
		c-0.6,3.9-1.3,7.9-1.9,11.8c-0.1,0.6-0.3,1.3-0.1,2c0.2,0.6,1.2,0.4,1.4,1c0.1,0.5,0,1.1-0.1,1.7c0,0.7-0.9,0.9-1.5,1.1
		c-1.3,0.2-2.8,0.1-3.7-1c-0.6-0.8-0.7-1.8-0.6-2.8c0.8-5,1.6-10,2.4-15C549.4,11.8,549.7,11.5,550.1,11.4L550.1,11.4z M579.3,12.2
		c0-0.4,0.4-0.8,0.9-0.8h2.2c0.6,0,1,0.6,0.9,1.1c-0.5,3.3-1,6.5-1.6,9.8c0.8-0.1,1.7-0.3,2.2-0.9c0.9-1,1.7-2.2,2.2-3.5
		c0.2-0.5,0.3-1.2,0.9-1.3c0.8,0,1.7,0,2.5,0c0.6,0,1,0.6,0.8,1.2c-0.2,0.8-0.6,1.5-1,2.2c-0.9,1.4-1.8,2.8-3,3.8
		c0.5,1.6,1.2,3.2,1.8,4.8c0.2,0.5,0.6,1.1,0.2,1.7c-0.5,0.6-1.3,0.3-1.9,0.4c-0.7-0.1-1.6,0.3-2-0.5c-0.7-1.6-1.3-3.3-2-4.9
		c-0.4,0-0.8,0-1.3,0c0,0.1-0.1,0.2-0.1,0.2c-0.2,1.5-0.5,2.9-0.7,4.4c-0.1,0.4-0.4,0.7-0.8,0.7c-0.8,0-1.6,0-2.4,0
		c-0.3,0-0.6-0.2-0.8-0.5c-0.1-0.3-0.1-0.6,0-1C577.5,23.6,578.4,17.9,579.3,12.2L579.3,12.2z M620.2,13.8c0.1-0.4,0.5-0.7,0.9-0.7
		c0.6,0,1.2,0,1.8,0c0.5,0,0.9,0.5,0.8,1c-0.1,0.8-0.3,1.7-0.4,2.5c0.6,0,1.2,0,1.7,0c0.5,0,0.9,0.5,0.9,1c-0.1,0.5-0.2,0.9-0.3,1.4
		c-0.1,0.4-0.4,0.7-0.8,0.8c-0.7,0-1.4,0-2.1,0c-0.3,2-0.6,3.9-0.9,5.9c0,0.5-0.1,1,0.2,1.4c0.4,0.5,1.1,0.3,1.6,0.4
		c0.4,0.1,0.7,0.6,0.6,1.1c-0.1,0.5-0.1,1-0.2,1.5c-0.2,0.5-0.8,0.6-1.3,0.8c-1.3,0.4-2.9,0.4-4.1-0.4c-1.1-0.8-1.3-2.2-1.2-3.4
		c0.3-2.4,0.8-4.8,1.1-7.2c-0.4,0-0.9,0.1-1.2-0.3c-0.4-0.4-0.2-0.9-0.1-1.4c0.1-0.5,0.1-1.1,0.6-1.4c0.4-0.2,0.9,0,1.4-0.1
		C619.7,15.7,619.9,14.8,620.2,13.8L620.2,13.8z M611.9,18.6c0.9-0.9,2-1.7,3.3-2.1c0.6-0.3,1.3,0.2,1.3,0.8
		c-0.1,0.8-0.3,1.6-0.4,2.4c-0.1,0.4-0.4,0.7-0.8,0.8c-1.4,0.3-2.7,1.1-3.7,2.1c-0.3,0.3-0.6,0.6-0.7,1c-0.3,2.1-0.6,4.1-1,6.2
		c0,0.4-0.4,0.9-0.9,0.8h-2.2c-0.5,0-1-0.5-0.9-1c0.6-4.1,1.3-8.1,1.9-12.2c0-0.4,0.3-0.8,0.8-0.9c0.5,0,1.1,0,1.6,0
		c0.4,0,0.9,0.4,0.9,0.9c0,0.6-0.1,1.3-0.1,1.9C611.4,19.2,611.6,18.9,611.9,18.6L611.9,18.6z M556.9,16.7c0.8-0.2,1.6,0,2.4-0.1
		c0.5-0.1,0.9,0.2,1,0.7c0.1,0.4-0.1,0.8-0.1,1.2c-0.6,3.8-1.2,7.6-1.8,11.3c0,0.4-0.4,0.9-0.9,0.8c-0.8,0-1.6,0-2.4,0
		c-0.5-0.1-0.9-0.6-0.7-1.1c0.6-3.9,1.2-7.8,1.9-11.8C556.3,17.4,556.4,16.9,556.9,16.7z M604.5,16.9c-2.2-0.4-4.4-0.7-6.7-0.5
		c-2,0.3-4,1.1-5.2,2.8c-1.7,2.1-2.3,5-1.9,7.7c0.2,1.3,0.8,2.6,1.8,3.4c1,0.8,2.3,0.9,3.5,0.7c1.6-0.3,3-1.4,4.2-2.6
		c0.1,0.5-0.1,1,0,1.5c0,0.5,0.4,0.9,0.9,0.9h1.5c0.4,0,0.8-0.4,0.8-0.8c0.6-4,1.3-8,1.9-11.9C605.4,17.5,605,17,604.5,16.9
		L604.5,16.9z M600.4,23.9c-0.6,1.1-1.4,2.1-2.3,3c-0.5,0.4-1.2,0.9-1.9,0.8c-0.7-0.1-1-0.9-1.2-1.5c-0.4-1.6,0-3.4,0.9-4.9
		c0.4-0.7,1.1-1.2,1.8-1.4c1.1-0.3,2.2-0.1,3.3,0.2l0.1,0.1C600.8,21.3,600.6,22.6,600.4,23.9L600.4,23.9z M575.6,21.6
		c0-1.5-0.4-3-1.4-4.1c-0.7-0.8-1.8-1.2-2.8-1.2c-1.7-0.1-3.3,0.8-4.6,1.9c-0.3,0.2-0.5,0.5-0.8,0.7c0-0.5,0-1,0-1.5
		c0-0.5-0.4-0.9-0.9-0.9h-1.5c-0.5,0-0.9,0.4-0.9,0.9c-0.9,5.9-1.9,11.8-2.8,17.7c-0.1,0.5,0.3,1.1,0.9,1.1c0.8,0,1.7,0.1,2.5-0.1
		c0.6-0.2,0.6-0.9,0.7-1.5c0.2-1.3,0.4-2.6,0.5-3.9c2.9,0.6,6.3,0.2,8.4-2C574.9,26.9,575.7,24.2,575.6,21.6L575.6,21.6z
		 M571.5,23.1c-0.1,1.4-0.6,2.7-1.5,3.7c-1.2,1.2-3.1,1-4.6,0.6c0,0-0.1-0.1-0.1-0.2c0.2-1.3,0.4-2.6,0.6-3.8
		c0.8-1.4,1.8-2.7,3.3-3.5c0.5-0.3,1.3-0.2,1.6,0.3C571.5,21.1,571.5,22.1,571.5,23.1L571.5,23.1z"/>
</g>
</svg>
