<?xml version="1.0" encoding="utf-8"?>
<!-- Generator: Adobe Illustrator 22.1.0, SVG Export Plug-In . SVG Version: 6.00 Build 0)  -->
<svg version="1.1" id="Layer_1" xmlns="http://www.w3.org/2000/svg" xmlns:xlink="http://www.w3.org/1999/xlink" x="0px" y="0px"
	 width="107.6px" height="105.8px" viewBox="0 0 107.6 105.8" style="enable-background:new 0 0 107.6 105.8;" xml:space="preserve"
	>
<style type="text/css">
	.st0{fill:#EDEFF1;}
	.st1{fill:url(#Path_3200_1_);}
	.st2{fill:#FFFFFF;}
	.st3{fill:url(#Path_3202_1_);}
	.st4{opacity:0.5;fill:#FFFFFF;enable-background:new    ;}
	.st5{opacity:4.000000e-02;enable-background:new    ;}
	.st6{fill:#03BB6D;}
	.st7{opacity:9.000000e-02;enable-background:new    ;}
	.st8{opacity:0.1;}
	.st9{opacity:0.24;fill:#003280;enable-background:new    ;}
	.st10{fill:#333333;}
	.st11{opacity:0.1;fill:#FFFFFF;enable-background:new    ;}
</style>
<g id="Group_2111" transform="translate(-6905 -9306)">
	<g id="_1069124" transform="translate(263.099 279)">
		<path id="Path_3199" class="st0" d="M6659.8,9115.8c-19.6-20.9-18.7-53.8,2-73.5c20.7-19.7,53.4-18.8,73,2.1
			c18.8,20,18.8,51.4,0,71.4v-2.4h-75V9115.8z"/>
		<g id="Group_1977" transform="translate(4.455 10.045)">
			<g id="Group_1976" transform="translate(0 0)">
				
					<linearGradient id="Path_3200_1_" gradientUnits="userSpaceOnUse" x1="7450.4629" y1="8912.2178" x2="7450.4629" y2="8913.2168" gradientTransform="matrix(26.116 0 0 26.116 -187921.9219 -223722.375)">
					<stop  offset="0" style="stop-color:#EDEFF1"/>
					<stop  offset="1" style="stop-color:#D5D5D5"/>
				</linearGradient>
				<path id="Path_3200" class="st1" d="M6660.4,9029.1h-12.1c-3.9,0-7,3.1-7,7v15.1c0,2.2,1.8,4,4,4h15.1c3.9,0,7-3.1,7-7v-12.1
					C6667.5,9032.2,6664.3,9029.1,6660.4,9029.1z"/>
				<path id="Path_3201" class="st2" d="M6646.4,9029.1c3.9,0,7,3.1,7,7v67.4c18.3,21.7,50.7,24.6,72.5,6.3c2.1-1.8,4.1-3.7,5.9-5.8
					v-67.9c0-3.9-3.1-7-7-7l0,0H6646.4z"/>
			</g>
			
				<linearGradient id="Path_3202_1_" gradientUnits="userSpaceOnUse" x1="6704.7363" y1="8918.1563" x2="6718.396" y2="8918.1563" gradientTransform="matrix(1 0 0 -1 13.3647 17987.9551)">
				<stop  offset="0" style="stop-color:#EDEFF1"/>
				<stop  offset="1" style="stop-color:#D5D5D5"/>
			</linearGradient>
			<path id="Path_3202" class="st3" d="M6725.1,9110.5c2.4-1.9,4.6-4.1,6.6-6.4v-68c0-3.9-3.1-7-7-7h-6.6c3.9,0,7,3.1,7,7V9110.5z"
				/>
		</g>
		<path id="Path_3207" class="st4" d="M6698.6,9091.4h-22.5c-0.5,0-1,0.5-1,1v2c0,0.5,0.5,1,1,1h22.5c0.5,0,1-0.5,1-1v-2
			C6699.6,9091.8,6699.2,9091.4,6698.6,9091.4z M6698.6,9119.5h-22.5c-0.5,0-1,0.5-1,1v2c0,0.5,0.5,1,1,1h22.5c0.5,0,1-0.5,1-1v-2
			C6699.6,9119.9,6699.2,9119.5,6698.6,9119.5z"/>
	</g>
	<g id="_3649823" transform="translate(290.349 314.757)">
		<g id="Group_1946" transform="translate(0 11.122)">
			<path id="Path_4372" class="st0" d="M6695.4,9050.1H6643c-1-0.1-1.8-1-1.7-2v-17c-0.1-1,0.7-1.9,1.7-2h52.4c1,0.1,1.8,1,1.7,2
				v17.1C6697.2,9049.2,6696.5,9050,6695.4,9050.1z"/>
		</g>
		<path id="Path_4373" class="st5" d="M6644.5,9059.3v-17.1c0-1.1,0.4-2,1-2h-3.1c-0.6,0-1,0.9-1,2v17.1c0,1.1,0.4,2,1,2h3.1
			C6644.9,9061.3,6644.5,9060.4,6644.5,9059.3z"/>
		<g id="Group_1973">
			<g id="Group_1944" transform="translate(1.709 37.269)">
				<path id="Path_4369" class="st6" d="M6675.5,9043.8h-31.8c-1.4-0.2-2.4-1.4-2.3-2.8v-9.1c-0.1-1.4,0.9-2.6,2.3-2.8h31.8
					c1.4,0.2,2.4,1.4,2.3,2.8v9.1C6677.9,9042.4,6676.8,9043.6,6675.5,9043.8z"/>
			</g>
			<path id="Path_4370" class="st7" d="M6647,9078.2v-9.1c0-1.5,0.4-2.8,1-2.8h-4c-0.5,0-1,1.2-1,2.8v9.1c0,1.5,0.4,2.8,1,2.8h4
				C6647.4,9081,6647,9079.8,6647,9078.2z"/>
			<path id="Path_4380" class="st2" d="M6667.6,9075.4h-12.7c-0.9,0-1.7-0.8-1.7-1.7c0-0.9,0.8-1.7,1.7-1.7h12.7
				c0.9,0,1.7,0.8,1.7,1.7C6669.3,9074.6,6668.6,9075.4,6667.6,9075.4L6667.6,9075.4z"/>
		</g>
		<g id="Group_1970" transform="translate(0.001 0.63)">
			<path id="Path_4367" class="st0" d="M6695.3,9029.1h-44.9l-0.2,0.3v5.9l0.2,0.4h44.9c1,0,1.8-0.7,1.8-1.7v-3.1
				C6697.1,9029.8,6696.3,9029.1,6695.3,9029.1z"/>
			<g id="Group_1945" transform="translate(0 0)">
				<path id="Path_4371" class="st6" d="M6651.8,9029.1h-9c-0.9,0.1-1.5,0.8-1.4,1.7v3.1c-0.1,0.9,0.6,1.6,1.4,1.7h9V9029.1z"/>
			</g>
			<g id="Group_1968" transform="translate(0 0)">
				<path id="Path_4384" class="st7" d="M6644.5,9033.9v-3.1c0-0.9,0.4-1.7,1-1.7h-3.2c-0.5,0-1,0.8-1,1.7v3.1c0,0.9,0.4,1.7,1,1.7
					h3.2C6645,9035.6,6644.5,9034.9,6644.5,9033.9z"/>
			</g>
		</g>
		<g id="Group_1971" transform="translate(0.001 -9.999)">
			<path id="Path_4367-2" class="st0" d="M6695.3,9029.1h-44.9l-0.2,0.3v5.9l0.2,0.4h44.9c1,0,1.8-0.7,1.8-1.7v-3.1
				C6697.1,9029.8,6696.3,9029.1,6695.3,9029.1z"/>
			<g id="Group_1945-2" transform="translate(0 0)">
				<path id="Path_4371-2" class="st6" d="M6651.8,9029.1h-9c-0.9,0.1-1.5,0.8-1.4,1.7v3.1c-0.1,0.9,0.6,1.6,1.4,1.7h9V9029.1z"/>
			</g>
			<g id="Group_1968-2" transform="translate(0 0)" class="st8">
				<path id="Path_4384-2" d="M6644.5,9033.9v-3.1c0-0.9,0.4-1.7,1-1.7h-3.2c-0.5,0-1,0.8-1,1.7v3.1c0,0.9,0.4,1.7,1,1.7h3.2
					C6645,9035.6,6644.5,9034.9,6644.5,9033.9z"/>
			</g>
		</g>
		<path id="Path_3206" class="st9" d="M6686.8,9044.3h-35.3l0,0c-0.5,0-0.9,0.4-0.9,0.9v1.7c0,0.5,0.4,0.9,0.9,0.9h35.3
			c0.5,0,0.9-0.4,0.9-0.9v-1.7C6687.7,9044.7,6687.3,9044.3,6686.8,9044.3z M6679.8,9051.3h-28.3c-0.5,0-0.9,0.4-0.9,0.9v1.8
			c0,0.5,0.4,0.9,0.9,0.9l0,0h28.3c0.5,0,0.9-0.4,0.9-0.9v-1.8C6680.7,9051.7,6680.3,9051.3,6679.8,9051.3z"/>
	</g>
	<g id="Group_1975" transform="translate(55.21 -32.203) rotate(8)">
		<g id="Group_1974" transform="translate(335.709 296.797)">
			<path id="Path_4385" class="st6" d="M7844.1,8054.4l-7.1,26.6c-0.1,0.6-0.7,1-1.3,0.9c-0.6-0.1-1-0.7-0.9-1.3v-0.1l7.1-26.6
				c0.1-0.6,0.7-1,1.3-0.9C7843.8,8053.1,7844.2,8053.7,7844.1,8054.4C7844.1,8054.3,7844.1,8054.4,7844.1,8054.4z"/>
			<path id="Path_4386" class="st10" d="M7842.2,8071.1l-1.4,5c-0.2,0.9-1.2,1.5-2.1,1.2l0,0l-3.4-0.9c-0.9-0.2-1.5-1.2-1.2-2.1l0,0
				l1.4-5c0.2-0.9,1.2-1.5,2.1-1.2l3.4,0.9C7841.9,8069.2,7842.4,8070.2,7842.2,8071.1L7842.2,8071.1L7842.2,8071.1z"/>
			<path id="Path_4387" class="st10" d="M7857.5,8022.4l-4.5,17l-0.2,0.7l-11-3.2l0.2-0.9l4.5-16.6c0.5-1.9,2.4-3,4.3-2.5l0,0
				l4.3,1.2C7856.9,8018.7,7858,8020.6,7857.5,8022.4L7857.5,8022.4z"/>
			<path id="Path_4388" class="st11" d="M7857.5,8022.4l-4.5,17l-7-2.3l4.4-16.5c0.5-1.9,2.4-3,4.3-2.5l0,0l0.4,0.1
				C7856.9,8018.7,7858,8020.6,7857.5,8022.4z"/>
			<path id="Path_4389" d="M7852.9,8039.4l-8.4,31.4c-0.5,1.9-2.4,3-4.3,2.5l0,0l-4.3-1.2c-1.9-0.5-3-2.4-2.5-4.3l0,0l8.4-31.4
				c0.5-1.9,2.4-3,4.3-2.5l0,0l4.3,1.2C7852.3,8035.6,7853.4,8037.5,7852.9,8039.4L7852.9,8039.4z"/>
			<path id="Path_4390" class="st11" d="M7852.9,8039.4l-8.4,31.4c-0.5,1.9-2.4,3-4.3,2.5l0,0l-0.3-0.2c-1.9-0.5-3-2.4-2.5-4.3l0,0
				l9.3-34.8l3.7,1C7852.3,8035.6,7853.4,8037.5,7852.9,8039.4L7852.9,8039.4z"/>
		</g>
	</g>
</g>
</svg>
