<?xml version="1.0" encoding="utf-8"?>
<!-- Generator: Adobe Illustrator 22.1.0, SVG Export Plug-In . SVG Version: 6.00 Build 0)  -->
<svg version="1.1" id="Layer_1" xmlns="http://www.w3.org/2000/svg" xmlns:xlink="http://www.w3.org/1999/xlink" x="0px" y="0px"
	 width="102.7px" height="105.8px" viewBox="0 0 102.7 105.8" style="enable-background:new 0 0 102.7 105.8;" xml:space="preserve"
	>
<style type="text/css">
	.st0{fill:#EDEFF1;}
	.st1{fill:#2A2F4F;}
	.st2{fill:#3D4159;}
	.st3{fill:#FFFFFF;}
	.st4{fill:#DBB39D;}
	.st5{fill:#D3A489;}
	.st6{fill:#2E2E2E;}
	.st7{fill:#333333;}
	.st8{opacity:0.1;enable-background:new    ;}
	.st9{fill:#0265FF;}
	.st10{fill:#00D264;}
</style>
<g id="Group_2114" transform="translate(-5830.963 -9017.005)">
	<g id="_1256645_1_" transform="translate(0.611 0.004)">
		<path class="st0" d="M5931.7,9070.3c0,16.8-8.5,31.5-21.5,40.2c-7.6,5.1-16.8,8-26.7,8c-9.8,0-19-2.9-26.6-8
			c-13-8.6-21.6-23.4-21.6-40.2c0-15.3,7.1-28.9,18.2-37.7c4.9-3.9,10.5-6.8,16.6-8.6c4.3-1.2,8.8-1.9,13.4-1.9s9.1,0.6,13.4,1.9
			c6,1.8,11.7,4.7,16.7,8.7C5925,9041.8,5931.7,9055.6,5931.7,9070.3z"/>
		<g id="Group_1390" transform="translate(16.483 14.16)">
			<path id="Path_3317" class="st1" d="M5897,9043h-3.3v-20.9h3.3c1.3,0,2.3,1,2.3,2.3v16.3C5899.3,9042,5898.2,9043,5897,9043
				L5897,9043z"/>
			<path id="Path_3318" class="st1" d="M5836.8,9030.6h4.1v-8.5h-4.1c-0.8,0-1.5,0.7-1.5,1.5v5.5
				C5835.3,9029.9,5836,9030.6,5836.8,9030.6L5836.8,9030.6z"/>
			<path id="Path_3319" class="st1" d="M5836.8,9040.3h4.1v-8.5h-4.1c-0.8,0-1.5,0.7-1.5,1.5l0,0v5.5
				C5835.3,9039.7,5836,9040.3,5836.8,9040.3L5836.8,9040.3L5836.8,9040.3z"/>
		</g>
		<path id="Path_3320" class="st2" d="M5913.6,9033v74.9c-17.6,14.1-42.6,14.1-60.2,0V9033c0-0.1,0-0.2,0-0.3c0.2-4.8,4.2-8.7,9-8.7
			h42.2c4.8,0,8.8,3.8,9,8.7C5913.6,9032.7,5913.6,9032.9,5913.6,9033L5913.6,9033z"/>
		<path class="st3" d="M5910.2,9033.8v76.6c-7.6,5.1-16.8,8-26.7,8c-9.8,0-19-2.9-26.6-8v-76.6c0-2.8,1.8-5.1,3.9-5.1h45.4
			C5908.4,9028.8,5910.2,9031,5910.2,9033.8z"/>
		<g id="Group_1392" transform="translate(32.225 17.079)">
			<path id="Path_3218" class="st4" d="M5843.4,9042.9c0,2.2-1.8,4-4,4s-4-1.8-4-4c0-2.2,1.8-4,4-4S5843.4,9040.7,5843.4,9042.9
				L5843.4,9042.9z"/>
			<path id="Path_3219" class="st5" d="M5867.4,9042.9c0,2.2-1.8,4-4,4s-4-1.8-4-4c0-2.2,1.8-4,4-4l0,0
				C5865.6,9038.9,5867.4,9040.7,5867.4,9042.9z"/>
			<path id="Path_3220" class="st5" d="M5851.4,9057.6c-6.6,0-12-5.4-12-12v-15.5h24.1v15.4
				C5863.5,9052.2,5858.1,9057.6,5851.4,9057.6L5851.4,9057.6z"/>
			<path id="Path_3221" class="st4" d="M5853.2,9057.5c-6.6,0.9-12.7-3.6-13.6-10.2c-0.1-0.6-0.1-1.1-0.1-1.7v-15.5h3.4v15.4
				C5842.8,9051.6,5847.2,9056.6,5853.2,9057.5z"/>
			<path id="Path_3222" class="st6" d="M5841.9,9032.7l-3.7,1.9v8.5c2.1,0,3.7-1.7,3.7-3.7V9032.7z"/>
			<path id="Path_3223" class="st7" d="M5860.9,9026.2h3.7v17c-2.1,0-3.7-1.7-3.7-3.7V9026.2z"/>
			<path id="Path_3224" class="st7" d="M5859.2,9034.6h-21c0-6.7,5.4-12.1,12-12.1l0,0c0,0,6.2-1,10,0c3.8,1,4,2.4,4.4,3.9
				C5865.4,9029.7,5864,9034.6,5859.2,9034.6L5859.2,9034.6z"/>
			<path id="Path_3225" class="st8" d="M5855.9,9022.6h-5.7c-6.7,0-12,5.4-12,12.1h5.7C5843.9,9028,5849.3,9022.6,5855.9,9022.6
				L5855.9,9022.6z"/>
		</g>
	</g>
	<g id="_2504957" transform="translate(29.171 64.209)">
		<path id="Path_3153" class="st9" d="M5848,9038.9h-8.4c-2.3,0-4.2-1.9-4.2-4.2l0,0v-8.4c0-2.3,1.9-4.2,4.2-4.2l0,0h8.4
			c2.3,0,4.2,1.9,4.2,4.2l0,0v8.4C5852.2,9037,5850.3,9038.9,5848,9038.9L5848,9038.9L5848,9038.9z"/>
		<path id="Path_3154" class="st10" d="M5870.4,9038.9h-8.4c-2.3,0-4.2-1.9-4.2-4.2l0,0v-8.4c0-2.3,1.9-4.2,4.2-4.2l0,0h8.4
			c2.3,0,4.2,1.9,4.2,4.2l0,0v8.4C5874.6,9037,5872.7,9038.9,5870.4,9038.9L5870.4,9038.9L5870.4,9038.9z"/>
		<g id="Group_1375" transform="translate(25.039 2.1)">
			<path id="Path_3155" class="st3" d="M5846.6,9025.1c-1.7-2.9-5.4-3.8-8.3-2.1s-3.8,5.4-2.1,8.3l-0.7,2.5v0.1
				c0,0.1,0.2,0.2,0.3,0.2l2.5-0.7c1.9,1.1,4.3,1.1,6.2,0C5847.3,9031.6,5848.3,9027.9,5846.6,9025.1z M5845.7,9030.7
				c-1.4,2.4-4.5,3.1-6.8,1.7c-0.1-0.1-0.3-0.1-0.4-0.1l-1.8,0.5c0,0,0.3-1.2,0.5-1.8c0-0.1,0-0.3-0.1-0.4c-0.9-1.6-0.9-3.5,0-5.1
				c1.4-2.4,4.5-3.1,6.8-1.7C5846.3,9025.3,5847.1,9028.3,5845.7,9030.7z"/>
			<path id="Path_3156" class="st3" d="M5838.5,9026.5c0.2,2.4,2.1,4.4,4.5,4.6l0,0c0.4,0,0.8-0.1,1-0.4l0.2-0.2
				c0.1-0.1,0.1-0.2,0.1-0.3v-0.4c0-0.1-0.1-0.2-0.1-0.2l-1.2-0.6c-0.1,0-0.2,0-0.3,0l-0.5,0.5c-0.1,0.1-0.2,0.1-0.2,0.1l0,0
				c-1-0.2-1.9-1-2.1-2.1l0,0c0-0.1,0-0.2,0.1-0.2l0.5-0.5c0.1-0.1,0.1-0.2,0-0.3l-0.6-1.2c0-0.1-0.1-0.1-0.2-0.1h-0.3
				c-0.2,0-0.3,0.1-0.4,0.2l-0.2,0.2C5838.6,9025.8,5838.5,9026.1,5838.5,9026.5L5838.5,9026.5L5838.5,9026.5z"/>
		</g>
		<g id="_597177_2_" transform="translate(3.792 3.792)">
			<g id="Group_1644" transform="translate(0.009 0)">
				<path id="Path_4039" class="st3" d="M5844.5,9029l-1.3-1.3c-0.3-0.3-0.9-0.4-1.2,0c-0.1,0.1-0.2,0.2-0.2,0.3
					c-0.2,0.4-0.6,0.7-1,0.6c-1.1-0.4-2-1.3-2.4-2.4c-0.1-0.4,0.1-0.9,0.6-1c0.5-0.2,0.7-0.6,0.5-1.1c0-0.1-0.1-0.2-0.2-0.3
					l-1.3-1.3c-0.4-0.3-0.9-0.3-1.3,0l-0.9,0.9c-0.9,0.9,0.1,3.4,2.3,5.6c2.2,2.2,4.7,3.2,5.6,2.3l0.9-0.9
					C5844.8,9029.9,5844.8,9029.3,5844.5,9029z"/>
			</g>
		</g>
	</g>
</g>
</svg>
