<?xml version="1.0" encoding="utf-8"?>
<!-- Generator: Adobe Illustrator 22.1.0, SVG Export Plug-In . SVG Version: 6.00 Build 0)  -->
<svg version="1.1" id="Layer_1" xmlns="http://www.w3.org/2000/svg" xmlns:xlink="http://www.w3.org/1999/xlink" x="0px" y="0px"
	 width="102.7px" height="105.8px" viewBox="0 0 102.7 105.8" style="enable-background:new 0 0 102.7 105.8;" xml:space="preserve"
	>
<style type="text/css">
	.st0{fill:#EDEFF1;}
	.st1{fill:#FFFFFF;stroke:#E2E2E2;stroke-miterlimit:10;}
	.st2{opacity:3.000000e-02;enable-background:new    ;}
	.st3{fill:#03BB6D;}
	.st4{opacity:0.1;enable-background:new    ;}
	.st5{opacity:0.23;fill:#929292;enable-background:new    ;}
	.st6{fill:#FFFFFF;}
	.st7{fill:#FFCC00;}
	.st8{fill:#FB4B26;}
	.st9{fill:none;stroke:#E2E2E2;stroke-miterlimit:10;}
</style>
<g id="Group_2112_1_" transform="translate(-527 -279)">
	<path class="st0" d="M627.4,332.7c0,16.2-8,30.5-20.2,39.4c-8.1,5.9-18.2,9.4-29,9.4c-4.7,0-9.2-0.6-13.4-1.8
		c-3.7-1-7.2-2.5-10.5-4.3c-0.2-0.1-0.4-0.2-0.6-0.3c-3.5-2-6.7-4.4-9.5-7.1c-1-1-2-2-2.9-3c-0.6-0.6-1.1-1.3-1.6-1.9
		c-1.8-2.2-3.3-4.6-4.7-7.1c-3.8-6.9-5.9-14.8-5.9-23.2c0-18.1,9.9-33.9,24.7-42.3l0,0c1.3-0.7,2.6-1.4,4-2c0.4-0.2,0.7-0.3,1.1-0.5
		c6-2.6,12.6-4,19.6-4c6.9,0,13.6,1.4,19.6,4c5.3,2.3,10,5.4,14.2,9.2c1.1,1,2.1,2.1,3.1,3.2c3.9,4.3,7,9.3,9.1,14.8
		C626.2,320.5,627.4,326.5,627.4,332.7z"/>
	<g id="Component_61_4_1_" transform="translate(569 283)">
		<g transform="matrix(1, 0, 0, 1, -42, -4)">
			<path id="Path_4407-4_1_" class="st1" d="M103.1,8.9H28.3c2.2,0,4,1.3,4,2.9v21.4c0,1.6-1.8,2.9-4,2.9h74.8c2.2,0,4-1.3,4-2.9
				V11.8C107.2,10.2,105.4,8.9,103.1,8.9z"/>
		</g>
		<path id="Path_4408_1_" class="st2" d="M22.7,29.2V7.8c0-1.6,1.3-2.9,2.9-2.9H8.7c1.6,0,2.9,1.3,2.9,2.9v21.4
			c0,1.6-1.3,2.9-2.9,2.9h16.9C24,32.1,22.7,30.8,22.7,29.2z"/>
		<path id="Path_4409_1_" class="st3" d="M12.2,29.2V7.8c0-1.6-1.3-2.9-2.9-2.9h-21.9c-1.6,0-2.9,1.3-2.9,2.9v21.4
			c0,1.6,1.3,2.9,2.9,2.9H9.3C10.9,32.1,12.2,30.8,12.2,29.2L12.2,29.2z"/>
		<path id="Path_4410_1_" class="st4" d="M-3.3,29.6c0-1.4,1.1-2.6,2.4-2.7V10.1c-1.5-0.2-2.6-1.5-2.4-3c0.1-1,0.7-1.8,1.7-2.2h-11
			c-1.6,0-2.9,1.3-2.9,2.9v21.4c0,1.6,1.3,2.9,2.9,2.9h10.9C-2.7,31.6-3.3,30.7-3.3,29.6L-3.3,29.6z"/>
		<path id="Path_4413_1_" class="st5" d="M18.5,17.3c-0.9,0-1.6-0.7-1.6-1.6c0-0.9,0.7-1.6,1.6-1.6L58.4,14l0,0
			c0.9,0,1.6,0.7,1.6,1.6c0,0.9-0.7,1.6-1.6,1.6L18.5,17.3L18.5,17.3z"/>
		<path id="Path_4414_1_" class="st5" d="M45.2,24H18.6c-0.9,0-1.6-0.7-1.6-1.6s0.7-1.6,1.6-1.6l0,0h26.6c0.9,0,1.6,0.7,1.6,1.6
			S46.1,24,45.2,24z"/>
		<path id="Path_4434_1_" class="st6" d="M3.4,13.9c0.2,0,0.4-0.2,0.4-0.4v-1.2c0-0.2-0.2-0.4-0.4-0.4h-9.2c-0.2,0-0.4,0.2-0.4,0.4
			l0,0v1.4c0,0.2,0.2,0.4,0.4,0.4h2.6c0.7,0,1.4,0.3,1.9,0.8h-4.5c-0.2,0-0.4,0.2-0.4,0.4v1.2c0,0.2,0.2,0.4,0.4,0.4h4.9
			c-0.2,1.1-1.2,1.9-2.3,1.8h-2.6c-0.2,0-0.4,0.2-0.4,0.4v1.6c0,0.1,0,0.2,0.1,0.3l5.1,4.7c0.1,0.1,0.2,0.1,0.3,0.1h2.6
			c0.2,0,0.4-0.2,0.4-0.4c0-0.1,0-0.2-0.1-0.3l-4.7-4.3c2.3,0,4.1-1.7,4.3-4h1.6c0.2,0,0.4-0.2,0.4-0.4v-1.2c0-0.2-0.2-0.4-0.4-0.4
			H1.6c-0.1-0.3-0.3-0.7-0.4-1L3.4,13.9z"/>
	</g>
	<g id="Component_61_5_1_" transform="translate(556 317)">
		<g transform="matrix(1, 0, 0, 1, -29, -38)">
			<path id="Path_4407-5_1_" class="st1" d="M90.1,42.9H15.3c2.2,0,4,1.3,4,2.9v21.4c0,1.6-1.8,2.9-4,2.9h74.8c2.2,0,4-1.3,4-2.9
				V45.8C94.2,44.2,92.4,42.9,90.1,42.9z"/>
		</g>
		<path id="Path_4408-2_1_" class="st2" d="M22.7,29.2V7.8c0-1.6,1.3-2.9,2.9-2.9H8.7c1.6,0,2.9,1.3,2.9,2.9v21.4
			c0,1.6-1.3,2.9-2.9,2.9h16.9C24,32.1,22.7,30.8,22.7,29.2z"/>
		<path id="Path_4409-2_1_" class="st7" d="M12.2,29.2V7.8c0-1.6-1.3-2.9-2.9-2.9h-21.9c-1.6,0-2.9,1.3-2.9,2.9v21.4
			c0,1.6,1.3,2.9,2.9,2.9H9.3C10.9,32.1,12.2,30.8,12.2,29.2L12.2,29.2z"/>
		<path id="Path_4410-2_1_" class="st4" d="M-3.3,29.6c0-1.4,1.1-2.6,2.4-2.7V10.1c-1.5-0.2-2.6-1.5-2.4-3c0.1-1,0.7-1.8,1.7-2.2
			h-11c-1.6,0-2.9,1.3-2.9,2.9v21.4c0,1.6,1.3,2.9,2.9,2.9h10.9C-2.7,31.6-3.3,30.7-3.3,29.6L-3.3,29.6z"/>
		<path id="Path_4413-2_1_" class="st5" d="M18.5,17.3c-0.9,0-1.6-0.7-1.6-1.6c0-0.9,0.7-1.6,1.6-1.6L58.4,14l0,0
			c0.9,0,1.6,0.7,1.6,1.6c0,0.9-0.7,1.6-1.6,1.6L18.5,17.3L18.5,17.3z"/>
		<path id="Path_4414-2_1_" class="st5" d="M45.2,24H18.6c-0.9,0-1.6-0.7-1.6-1.6s0.7-1.6,1.6-1.6l0,0h26.6c0.9,0,1.6,0.7,1.6,1.6
			S46.1,24,45.2,24z"/>
		<path id="Path_4434-2_1_" class="st6" d="M3.4,13.9c0.2,0,0.4-0.2,0.4-0.4v-1.2c0-0.2-0.2-0.4-0.4-0.4h-9.2
			c-0.2,0-0.4,0.2-0.4,0.4l0,0v1.4c0,0.2,0.2,0.4,0.4,0.4h2.6c0.7,0,1.4,0.3,1.9,0.8h-4.5c-0.2,0-0.4,0.2-0.4,0.4v1.2
			c0,0.2,0.2,0.4,0.4,0.4h4.9c-0.2,1.1-1.2,1.9-2.3,1.8h-2.6c-0.2,0-0.4,0.2-0.4,0.4v1.6c0,0.1,0,0.2,0.1,0.3l5.1,4.7
			c0.1,0.1,0.2,0.1,0.3,0.1h2.6c0.2,0,0.4-0.2,0.4-0.4c0-0.1,0-0.2-0.1-0.3l-4.7-4.3c2.3,0,4.1-1.7,4.3-4h1.6c0.2,0,0.4-0.2,0.4-0.4
			v-1.2c0-0.2-0.2-0.4-0.4-0.4H1.6c-0.1-0.3-0.3-0.7-0.4-1L3.4,13.9z"/>
	</g>
	<g id="Component_61_6_1_" transform="translate(542 351)">
		<g transform="matrix(1, 0, 0, 1, -15, -72)">
			<path class="st6" d="M80.2,79.8v13.3c-8.1,5.9-18.2,9.4-29,9.4c-4.7,0-9.2-0.6-13.4-1.8c-3.7-1-7.2-2.5-10.5-4.3
				c-0.2-0.1-0.4-0.2-0.6-0.3c-3.5-2-6.7-4.4-9.5-7.1c-1-1-2-2-2.9-3c-0.6-0.6-1.1-1.3-1.6-1.9C10.9,81.9,9.4,79.5,8,77h68.3
				C78.4,76.9,80.2,78.2,80.2,79.8z"/>
		</g>
		<path class="st2" d="M25.6,4.9c-1.6,0-2.9,1.3-2.9,2.9v20.9c-3.7-1-7.2-2.5-10.5-4.3c-0.2-0.1-0.4-0.2-0.6-0.3V7.8
			c0-1.6-1.3-2.9-2.9-2.9H25.6z"/>
		<path class="st8" d="M12.2,7.8v16.5c-0.2-0.1-0.4-0.2-0.6-0.3c-3.5-2-6.7-4.4-9.5-7.1c-1-1-2-2-2.9-3c-0.6-0.6-1.1-1.3-1.6-1.9
			c-1.8-2.2-3.3-4.6-4.7-7.1H9.4C10.9,4.9,12.2,6.2,12.2,7.8z"/>
		<path class="st4" d="M-0.9,10.1v3.8C-1.5,13.3-2,12.6-2.5,12c-1.8-2.2-3.3-4.6-4.7-7.1h5.6c-0.9,0.4-1.5,1.2-1.7,2.2
			C-3.4,8.6-2.4,9.9-0.9,10.1z"/>
		<path id="Path_4413-3_1_" class="st5" d="M18.5,17.3c-0.9,0-1.6-0.7-1.6-1.6c0-0.9,0.7-1.6,1.6-1.6L58.4,14l0,0
			c0.9,0,1.6,0.7,1.6,1.6c0,0.9-0.7,1.6-1.6,1.6L18.5,17.3L18.5,17.3z"/>
		<path id="Path_4414-3_1_" class="st5" d="M45.2,24H18.6c-0.9,0-1.6-0.7-1.6-1.6s0.7-1.6,1.6-1.6l0,0h26.6c0.9,0,1.6,0.7,1.6,1.6
			S46.1,24,45.2,24z"/>
		<path class="st6" d="M3.4,13.9H1.1c0.2,0.3,0.3,0.7,0.4,1h1.8c0.2,0,0.4,0.2,0.4,0.4v1.2c0,0.2-0.2,0.4-0.4,0.4H2c-1-1-2-2-2.9-3
			C-1.5,13.3-2,12.6-2.5,12h5.8c0.2,0,0.4,0.2,0.4,0.4v1.2C3.7,13.7,3.6,13.9,3.4,13.9z"/>
	</g>
</g>
<g transform="matrix(1, 0, 0, 1, -15, -72)">
	<path class="st9" d="M23.3,148.4h68.3c2.1-0.1,3.9,1.2,3.9,2.8v13.3"/>
</g>
</svg>
