<?xml version="1.0" encoding="utf-8"?>
<!-- Generator: Adobe Illustrator 22.1.0, SVG Export Plug-In . SVG Version: 6.00 Build 0)  -->
<svg version="1.1" id="Layer_1" xmlns="http://www.w3.org/2000/svg" xmlns:xlink="http://www.w3.org/1999/xlink" x="0px" y="0px"
	 width="102.7px" height="105.8px" viewBox="0 0 102.7 105.8" style="enable-background:new 0 0 102.7 105.8;" xml:space="preserve"
	>
<style type="text/css">
	.st0{fill:#EDEFF1;}
	.st1{fill:#D3A489;}
	.st2{opacity:0.1;}
	.st3{opacity:0.1;enable-background:new    ;}
	.st4{fill:#333333;}
	.st5{fill:#647892;}
	.st6{fill:#03BB6D;}
	.st7{fill:#FC5B6F;}
	.st8{fill:#FAC149;}
	.st9{fill:#F38D1A;}
	.st10{fill:#F74352;}
	.st11{opacity:0.5;fill:#FFFFFF;enable-background:new    ;}
	.st12{fill:#EFEFEF;}
	.st13{fill:#DDDDDD;}
	.st14{fill:#FFFFFF;}
</style>
<ellipse id="Ellipse_136" class="st0" cx="50.8" cy="53.4" rx="48.7" ry="48.7"/>
<g id="Group_1995" transform="translate(22.577)">
	<path id="Path_4435" class="st1" d="M18.6,54.1l7.5-9.3c0,0,4,0.6,12.7,1.7s10.3,10.7,10.3,10.7c1.6,5.9,2.2,10.3-0.3,11.5
		c-1.4,0.6-3.1,0.3-4.1-0.9c-1-1.4-1.9-2.8-2.7-4.4l-9.3-4.6c0,0-3.1,7.6-6.6,11.1s-5.9,0-5.9,0C12.6,63.5,18.6,54.1,18.6,54.1z"/>
	<g id="Group_1983" transform="translate(16.854 43.644)" class="st2">
		<path id="Path_4436" d="M3.8,23.9c3.5-3.5,6.6-11.1,6.6-11.1l5.4,2.6c-0.6,1.4-3.4,7.7-6.5,10.9c-3.5,3.5-5.9,0-5.9,0
			c-0.4-0.4-0.8-0.8-1.2-1.2C2.7,24.8,3.3,24.4,3.8,23.9z"/>
		<path id="Path_4437" d="M27.7,14.4c0,0-1.6-9.6-10.3-10.7c-4.1-0.5-7.2-1-9.3-1.2l1.1-1.4c0,0,4,0.6,12.7,1.7s10.3,10.7,10.3,10.7
			c1.6,5.9,2.2,10.3-0.3,11.5c-1.1,0.6-2.4,0.4-3.3-0.3C29.6,22.7,29,19,27.7,14.4z"/>
	</g>
	<path id="Path_4438" class="st1" d="M7.3,47.7c4.9-4.1,9.7-11.6,15-11.6c7.7,0,25.8,4.6,25.8,8.9c0,0.9-0.6,1.7-1.4,2l-2.9,0.7
		c-4.7,0.7-12.6-0.8-15.7-1.4c-0.8-0.2-1.6,0.1-2.1,0.7c-1.3,1.6-3.1,4.1-4.5,5.6c-1.4,1.6-2.4,3.5-3,5.5v0.1
		c-0.7,2.8-0.4,5.8,1,8.4c0.4,0.9,1,1.8,1.6,2.6c0,0,2,2.3,3.6,0.6l4.9-6.4c0.3-0.8,4.3-14.2,11.4-14.9c0.2,0,0.4,0,0.6,0
		c1,0,1.9,0.5,2.5,1.3c0.5,0.8,0.1,1.5-1.3,8.9c-0.6,2.8-1,5.6-1.2,8.4c0,3.1-5.4,12-8,16c-0.8,1.3-1.3,2.8-1.3,4.4v6H8.7v-9.3
		c0-0.6-0.1-1.2-0.3-1.7C5.8,75.9,3,68,2.1,60.7c-0.2-1.4,0-2.9,0.5-4.3C3.7,53.8,5.5,49.2,7.3,47.7z"/>
	<g id="Group_1984" transform="translate(9.228 39.969)">
		<path id="Path_4439" class="st3" d="M26.4,27.2c0-4.4,3-15.8,2.7-17c0-0.1-0.1-0.3-0.2-0.4c1-0.8,2.3-1.2,3.6-1.2
			c1.3,0.1,2.7,0.8,2.7,2c-0.1,1.9-2.7,12.4-2.7,16.5c0,3.1-5.4,12-8,16c-0.8,1.3-1.3,2.8-1.3,4.4v6h-6.1v-6c0-1.6,0.4-3.1,1.3-4.4
			C20.9,39.2,26.4,30.3,26.4,27.2z"/>
		<path id="Path_4440" class="st3" d="M37.4,7l-2.9,0.7c-4.3,0.6-11.4-0.5-15.7-1.4l0,0C18,6.1,17.2,6.4,16.7,7
			c-0.6,0.7-1.4,1.8-2,2.5l0,0l0,0c-0.9,1.1-1.7,2.2-2.5,3.1c-1.4,1.6-2.4,3.5-3,5.5v0.1c-0.7,2.8-0.4,5.7,1,8.2l0,0
			c0.5,1,1,1.9,1.7,2.8c0.6,0.8,1.5,1.2,2.5,1.2l0,0c0,0-5,3.6-8.6-1.2c-0.8-1.1-1.5-2.3-2.1-3.5c-2.5-4.2-2-9.5,1.2-13.2L14,2
			c0.7-0.8,1.7-1.2,2.7-1c15.7,3.2,20.5,1.6,20.6,1.6l0,0l0,0c0.8,0.5,1.3,1.3,1.4,2.2c0,0.5-0.2,1.1-0.6,1.4
			C38,6.7,37.7,6.9,37.4,7z"/>
	</g>
	<path id="Path_4441" d="M47.8,1.1h3.6c1.6,0,2.9,1.3,2.9,2.9v55.2c0,1.6-1.3,2.9-2.9,2.9h-3.6V1.1z"/>
	<path id="Path_4442" class="st4" d="M41.1,62.2H18.9c-1.6,0-2.9-1.3-2.9-2.9V4c0-1.6,1.3-2.9,2.9-2.9h22.2V62.2z"/>
	<rect id="Rectangle_1173" x="40.5" y="1.1" class="st5" width="7.9" height="61.1"/>
	<rect id="Rectangle_1174" x="44.5" y="1.1" class="st6" width="3.9" height="61.1"/>
	<path id="Path_4443" class="st7" d="M26.1,21.1c2.8,1,6-0.1,7.5-2.7c1.7,3,0.7,6.8-2.3,8.5s-6.8,0.7-8.5-2.3
		c-1.1-1.9-1.1-4.3,0-6.2C23.6,19.7,24.7,20.6,26.1,21.1z"/>
	<path id="Path_4444" class="st8" d="M30.3,9.5c3.2,1.2,4.9,4.7,3.7,7.9c-0.1,0.3-0.3,0.7-0.5,1c-1.7-3-5.5-4-8.5-2.3
		c-0.9,0.5-1.7,1.3-2.3,2.3c-1.7-3-0.7-6.8,2.3-8.5C26.7,9,28.6,8.9,30.3,9.5z"/>
	<path id="Path_4445" class="st9" d="M30.3,15.7c1.4,0.5,2.5,1.5,3.2,2.7c-1.7,3-5.5,4-8.5,2.3c-0.9-0.5-1.7-1.3-2.3-2.3
		C24.3,15.8,27.5,14.7,30.3,15.7z"/>
	<path id="Path_4446" class="st10" d="M24.4,22.1c2.3,2.7,6.1,3.6,9.4,2.1c-1.4,3.1-5.1,4.4-8.2,3s-4.4-5.1-3-8.2
		c0.1-0.1,0.1-0.2,0.2-0.4C23,19.9,23.6,21.1,24.4,22.1z"/>
	<path id="Path_4447" class="st11" d="M27.9,32.1c1,0,1.9,0.8,1.9,1.9l0,0v16.2c0,1-0.8,1.9-1.8,1.9s-1.9-0.8-1.9-1.8v-0.1V34
		C26,32.9,26.9,32.1,27.9,32.1z"/>
	<path id="Path_4448" class="st1" d="M29.7,63.5C30,62.7,34,49.3,41.1,48.6c0.2,0,0.4,0,0.6,0c1,0,1.9,0.5,2.5,1.3
		c0.5,0.8,0.1,1.5-1.3,8.9c-1.7,8.9-0.9,7.7-1.4,9.6H26.1L29.7,63.5z"/>
	<path id="Path_4449" class="st3" d="M35.4,68.3c0.1-0.4,0.2-0.8,0.2-1.1c0-4.4,3-15.8,2.7-17c0-0.1-0.1-0.3-0.2-0.4
		c1.9-1.3,4.4-1.7,5.8-0.3c0.7,0.7,0.5,1.4,0.2,2.9c-0.2,1.2-0.6,3.1-1.2,6.2c-1.8,9.3-0.9,7.7-1.4,9.7L35.4,68.3L35.4,68.3z"/>
	<path id="Path_4450" class="st12" d="M35,97H6.4v-7.5c0-0.4,0.3-0.7,0.7-0.7l0,0h27.1c0.4,0,0.7,0.3,0.7,0.7l0,0V97H35z"/>
	<path id="Path_4451" class="st13" d="M26.4,89.4v7.5H35v-7.5c0-0.4-0.3-0.7-0.7-0.7l0,0h-8.6C26.1,88.7,26.4,89,26.4,89.4
		L26.4,89.4z"/>
	<path id="Path_4452" class="st4" d="M34.9,96.4c0.6,0,1.1,0.5,1.1,1.1l0,0c0,0.3,0,1.8,0,4c-10.3,1.6-20.8-0.1-30.1-4.9
		c0.2-0.2,0.4-0.3,0.6-0.3L34.9,96.4L34.9,96.4z"/>
	<path id="Path_4453" d="M35.9,97.4L35.9,97.4c0,0.3,0,1.7,0,4c-2.8,0.4-5.7,0.6-8.5,0.6c0-2.4,0-4.3,0-4.6c0-0.6-0.5-1.1-1.1-1.1
		l0,0h8.5C35.5,96.4,35.9,96.9,35.9,97.4L35.9,97.4z"/>
</g>
<g id="Group_1994" transform="translate(0.869 13.869)">
	<path id="Path_4082" class="st6" d="M89.6,69.1c5.2,5.2,5.2,13.5,0,18.7s-13.5,5.2-18.7,0s-5.2-13.5,0-18.7S84.5,63.9,89.6,69.1
		L89.6,69.1z"/>
	<path id="Path_4084" class="st14" d="M92.9,72.6L82.2,83.3c-0.8,0.8-2,0.8-2.7,0l0,0L74.2,78c-0.7-0.8-0.7-2,0.1-2.7
		c0.8-0.7,1.9-0.7,2.7,0l4,4l9.4-9.4c0.8-0.8,2-0.8,2.7,0C93.7,70.6,93.7,71.9,92.9,72.6L92.9,72.6z"/>
</g>
</svg>
