<?xml version="1.0" encoding="utf-8"?>
<!-- Generator: Adobe Illustrator 22.1.0, SVG Export Plug-In . SVG Version: 6.00 Build 0)  -->
<svg version="1.1" id="logo" xmlns="http://www.w3.org/2000/svg" xmlns:xlink="http://www.w3.org/1999/xlink" x="0px" y="0px"
	 width="151.4px" height="32px" viewBox="0 0 151.4 32" style="enable-background:new 0 0 151.4 32;" xml:space="preserve">
<style type="text/css">
	.st0{fill:#0265FF;}
</style>
<g id="Component_55_1">
	<path id="Path_40995" class="st0" d="M29.2,0.6c3,0,5.4,2.5,5.3,5.4c0,0.4-0.1,0.8-0.2,1.2l-0.1,0.3l-1.9,7.1l-1.1,4.1
		c-0.5,1.8-2.1,3-3.9,3H13.5c-2,0-3.6-1.6-3.6-3.6c0-0.3,0-0.6,0.1-0.9l0,0c0.4-1.6,1.8-2.7,3.4-2.7h10c1,0,1.9-0.7,2.2-1.7l1.4-5.5
		L29,0.5L29.2,0.6L29.2,0.6z"/>
	<path id="Path_40994" class="st0" d="M21,5.4L21,5.4c1.8,0,3.3,1.5,3.3,3.3c0,0,0,0,0,0c0,0.3,0,0.6-0.1,0.9l-0.1,0.2
		c-0.4,1.4-1.7,2.4-3.2,2.4l0,0c-1.8,0-3.3-1.5-3.3-3.3c0,0,0,0,0,0c0-0.3,0-0.6,0.1-0.9l0.1-0.2C18.1,6.3,19.5,5.3,21,5.4z"/>
	<path id="Path_40996" class="st0" d="M20.1,24.5l-0.1,0.2l-0.8,2.9c-0.6,2.3-2.7,3.9-5.1,3.9h-10c-1.9-0.1-3.4-1.6-3.4-3.4l0,0
		c0-0.3,0-0.6,0.1-0.9c0-0.1,0-0.1,0.1-0.2c0.4-1.5,1.7-2.5,3.2-2.6L20.1,24.5L20.1,24.5z"/>
</g>
<path id="Path_41081" class="st0" d="M135.6,16.1c-0.3-0.3-0.3-0.7-0.1-1c0.5-0.7,0.8-1.6,0.8-2.4c0-1.2-0.5-2.4-1.4-3.1
	c-1-0.8-2.3-1.2-3.6-1.1h-5.9c-0.4,0-0.8,0.3-0.8,0.8c0,0,0,0,0,0l0,0l0.1,14.1c0,0.4,0.3,0.8,0.7,0.8c0,0,0,0,0,0h5.9
	c1.4,0.1,2.8-0.4,3.9-1.3c1-0.9,1.5-2.1,1.5-3.4C136.8,18.1,136.4,16.9,135.6,16.1z M131.4,14.2h-2.9v-1.9c0-0.4,0.1-0.4,0.4-0.6
	h2.5c0.6-0.1,1.1,0.4,1.2,1c0,0.1,0,0.2,0,0.2C132.5,13.3,132.4,14.2,131.4,14.2z M128.5,17.9c0-0.4,0.1-0.4,0.3-0.6h2.8
	c0.7,0,1.4,0.5,1.4,1.2c0,0.1,0,0.1,0,0.2c0.1,0.7-0.5,1.4-1.2,1.4c-0.1,0-0.1,0-0.2,0h-3.1L128.5,17.9z"/>
<path id="Path_41079-2" class="st0" d="M150.9,17.2c-0.2-0.5-0.5-1-1-1.3c-0.4-0.4-0.9-0.7-1.4-0.9c-0.5-0.2-1-0.4-1.5-0.6
	c-0.5-0.1-1-0.2-1.5-0.3c-0.4-0.1-0.9-0.2-1.3-0.3c-0.3-0.1-0.6-0.2-0.9-0.4c-0.2-0.1-0.3-0.3-0.3-0.6c0-0.3,0.2-0.7,0.4-0.9
	c0.4-0.2,0.9-0.3,1.4-0.3c0.7,0,1.5,0.1,2.2,0.4l0.6,0.3h0.1c0.2,0.1,0.5,0.3,0.8,0.4c0.3,0.2,0.7,0.1,1-0.1l1.1-1.4
	c0.2-0.3,0.2-0.8-0.1-1l0,0c-0.6-0.5-1.3-0.9-2-1.2c-1-0.3-2.1-0.5-3.2-0.6c-0.8,0-1.5,0.1-2.3,0.3c-0.7,0.2-1.3,0.6-1.8,1
	c-0.5,0.4-0.9,1-1.2,1.6c-0.2,0.6-0.4,1.2-0.4,1.8c0,0.7,0.1,1.3,0.4,1.9c0.2,0.5,0.5,1,1,1.3c0.4,0.3,0.9,0.6,1.4,0.8
	c0.5,0.2,1,0.4,1.5,0.6c0.5,0.1,1,0.2,1.5,0.3h0.1l1.3,0.3c0.3,0.1,0.6,0.2,0.9,0.4c0.2,0.2,0.3,0.4,0.3,0.7c0,0.4-0.2,0.8-0.5,1
	c-0.5,0.3-1.1,0.5-1.7,0.4c-0.9,0-1.7-0.2-2.5-0.6H143c-0.5-0.3-1.1-0.7-1.5-1c-0.3-0.2-0.7-0.2-0.9,0.1c0,0,0,0,0,0l-1.1,1.4
	c-0.2,0.3-0.2,0.6,0,0.9c0.3,0.3,0.5,0.6,0.9,0.8c0.5,0.3,1,0.6,1.5,0.8c1.1,0.5,2.3,0.7,3.6,0.6c0.8,0,1.7-0.1,2.5-0.3
	c0.7-0.2,1.3-0.6,1.8-1c0.5-0.4,0.9-1,1.2-1.6c0.2-0.6,0.4-1.3,0.4-2C151.3,18.3,151.2,17.7,150.9,17.2z"/>
<path id="Path_41074" class="st0" d="M115.1,8.4c1,0,2,0.2,3,0.6c0.9,0.3,1.7,0.9,2.4,1.6c0.7,0.7,1.2,1.6,1.6,2.4
	c0.4,1,0.6,2.1,0.5,3.1c0,1.1-0.2,2.1-0.5,3.1c-0.3,0.9-0.9,1.8-1.6,2.4c-0.7,0.7-1.5,1.2-2.4,1.7c-1.9,0.8-4.1,0.8-6,0
	c-0.9-0.3-1.7-0.9-2.4-1.7c-0.7-0.7-1.2-1.6-1.6-2.4c-0.4-1-0.6-2.1-0.5-3.1c0-1.1,0.2-2.1,0.5-3.1c0.3-0.9,0.9-1.8,1.6-2.4
	c0.7-0.7,1.5-1.2,2.4-1.6C113.1,8.5,114.1,8.3,115.1,8.4z M115.1,20.3c0.5,0,0.9-0.1,1.4-0.2c0.4-0.2,0.8-0.5,1.2-0.8
	c0.4-0.4,0.6-0.8,0.8-1.3c0.4-1.2,0.4-2.5,0-3.7c-0.2-0.5-0.5-0.9-0.8-1.3c-0.3-0.4-0.7-0.6-1.2-0.8c-0.9-0.3-1.9-0.3-2.8,0
	c-0.4,0.2-0.8,0.5-1.2,0.8c-0.4,0.4-0.6,0.8-0.8,1.3c-0.4,1.2-0.4,2.5,0,3.7c0.2,0.5,0.5,0.9,0.8,1.3c0.3,0.4,0.7,0.6,1.2,0.8
	C114.2,20.2,114.7,20.3,115.1,20.3z"/>
<path id="Path_41076-2" class="st0" d="M104.4,8.4h-2.5c-0.4,0-0.8,0.3-0.8,0.8c0,0,0,0,0,0v7c0.1,1.8-1.2,3.4-2.9,3.8h-1.3
	c-0.4-0.1-0.7,0.2-0.7,0.6c0,0,0,0.1,0,0.1v2.6c0,0.4,0.3,0.7,0.6,0.8c0.8,0.2,1.6,0.2,2.4,0c3.1-0.6,5.4-3,5.9-6.1
	c0.1-0.5,0.1-1,0.1-1.4V9.3C105.1,8.7,104.8,8.4,104.4,8.4z"/>
<path id="Path_41075" class="st0" d="M54.3,8.3c-0.4,0-0.8,0.3-0.8,0.8c0,0,0,0,0,0v7.6c0,0.4,0,0.8,0.1,1.2c0.7,3.9,4.4,6.6,8.4,6
	c3.6-0.6,6.2-3.7,6.1-7.3V9c0-0.4-0.3-0.8-0.7-0.8c0,0,0,0,0,0H65c-0.4,0-0.8,0.3-0.8,0.8c0,0,0,0,0,0v7.5c0,1.9-1.5,3.5-3.4,3.6
	c-1.9-0.1-3.4-1.6-3.4-3.4V9.1c0-0.4-0.3-0.8-0.7-0.8c0,0,0,0,0,0L54.3,8.3L54.3,8.3z"/>
<path id="Path_41079" class="st0" d="M81.7,17.2c-0.2-0.5-0.5-1-1-1.3c-0.4-0.4-0.9-0.7-1.4-0.9c-0.5-0.2-1-0.4-1.5-0.6
	c-0.5-0.1-1-0.2-1.5-0.3c-0.4-0.1-0.9-0.2-1.3-0.3c-0.3-0.1-0.6-0.2-0.9-0.4c-0.2-0.1-0.3-0.3-0.3-0.6c0-0.3,0.2-0.7,0.4-0.9
	c0.4-0.2,0.9-0.3,1.4-0.3c0.7,0,1.5,0.1,2.2,0.4l0.6,0.3h0.1c0.2,0.1,0.5,0.3,0.8,0.4c0.3,0.2,0.7,0.1,1-0.1l1.1-1.4
	c0.2-0.3,0.2-0.8-0.1-1l0,0c-0.6-0.5-1.3-0.9-2-1.2c-1-0.3-2.1-0.5-3.2-0.6c-0.8,0-1.5,0.1-2.3,0.3c-0.7,0.2-1.3,0.6-1.8,1
	c-0.5,0.4-0.9,1-1.2,1.6c-0.2,0.6-0.4,1.2-0.4,1.8c0,0.7,0.1,1.3,0.4,1.9c0.2,0.5,0.5,1,1,1.3c0.4,0.3,0.9,0.6,1.4,0.8
	c0.5,0.2,1,0.4,1.5,0.6c0.5,0.1,1,0.2,1.5,0.3h0.1l1.3,0.3c0.3,0.1,0.6,0.2,0.9,0.4c0.2,0.2,0.3,0.4,0.3,0.7c0,0.4-0.2,0.8-0.5,1
	c-0.5,0.3-1.1,0.5-1.7,0.4c-0.9,0-1.7-0.2-2.5-0.6h-0.1c-0.5-0.3-1.1-0.7-1.5-1c-0.3-0.2-0.7-0.2-0.9,0.1c0,0,0,0,0,0l-1.1,1.4
	c-0.2,0.3-0.2,0.6,0,0.9c0.3,0.3,0.5,0.6,0.9,0.8c0.5,0.3,1,0.6,1.5,0.8c1.1,0.5,2.3,0.7,3.6,0.6c0.8,0,1.7-0.1,2.5-0.3
	c0.7-0.2,1.3-0.6,1.8-1c0.5-0.4,0.9-1,1.2-1.6c0.2-0.6,0.4-1.3,0.4-2C82.1,18.3,81.9,17.7,81.7,17.2z"/>
<path id="Path_41076-2-2" class="st0" d="M50.2,8.3h-2.5C47.3,8.3,47,8.6,47,9c0,0,0,0,0,0v7c0.1,1.8-1.2,3.4-2.9,3.8h-1.3
	c-0.4-0.1-0.7,0.2-0.7,0.6c0,0,0,0.1,0,0.1v2.6c0,0.4,0.3,0.7,0.6,0.8c0.8,0.2,1.6,0.2,2.4,0c3.1-0.6,5.4-3,5.9-6.1
	c0.1-0.5,0.1-1,0.1-1.4V9.2C50.9,8.6,50.6,8.3,50.2,8.3z"/>
<path id="Path_41326" class="st0" d="M93.4,20.6c0-0.3-0.2-0.6-0.5-0.7c-0.1,0-0.1,0-0.2,0h-1.4c-1.8-0.3-3.1-2-2.9-3.8v-3.2
	c0-0.4,0.3-0.8,0.7-0.8c0,0,0,0,0,0h2.2c0.4,0,0.8-0.3,0.8-0.8c0,0,0,0,0,0V9c0-0.4-0.3-0.8-0.7-0.8c0,0,0,0,0,0h-6
	c-0.4,0-0.8,0.3-0.8,0.8c0,0,0,0,0,0v7.1c0,0.5,0,1,0.1,1.4c0.5,3.1,2.8,5.6,5.9,6.1c0.8,0.1,1.6,0.1,2.4,0c0.4,0,0.7-0.4,0.6-0.8
	C93.4,22.2,93.3,21.4,93.4,20.6z"/>
</svg>
