<?xml version="1.0" encoding="utf-8"?>
<!-- Generator: Adobe Illustrator 22.1.0, SVG Export Plug-In . SVG Version: 6.00 Build 0)  -->
<svg version="1.1" id="Layer_1" xmlns="http://www.w3.org/2000/svg" xmlns:xlink="http://www.w3.org/1999/xlink" x="0px" y="0px"
	 width="104px" height="105.8px" viewBox="0 0 104 105.8" style="enable-background:new 0 0 104 105.8;" xml:space="preserve">
<style type="text/css">
	.st0{fill:#EDEFF1;}
	.st1{clip-path:url(#SVGID_1_);}
	.st2{fill:#FFCC00;}
	.st3{fill:#FFD064;}
	.st4{fill:#F4FBFF;}
	.st5{fill:#FFFFFF;}
	.st6{opacity:0.1;fill:#0265FF;enable-background:new    ;}
	.st7{fill:#0265FF;}
	.st8{fill:#03BB6D;}
	.st9{fill:#01D87D;}
	.st10{fill:#FFFFFF;stroke:#FFFFFF;}
	.st11{clip-path:url(#SVGID_2_);}
</style>
<g id="Group_1394" transform="translate(268.188 969.226)">
	<g id="Component_11_6" transform="translate(0 0)">
		<g>
			<path id="Path_3141_8_" class="st0" d="M-216.6-965.9c27.1,0,49,21.9,49,49c0,27.1-21.9,49-49,49s-49-21.9-49-49
				C-265.6-944-243.7-965.9-216.6-965.9z"/>
		</g>
	</g>
	<g>
		<g>
			<g>
				<g>
					<defs>
						<path id="SVGID_5_" d="M-216.6-965.9c27.3-0.2,49.5,21.7,49.7,49s-21.7,49.5-49,49.7c-27.3,0.2-49.5-21.7-49.7-49
							c0-0.1,0-0.2,0-0.4C-265.7-943.7-243.8-965.8-216.6-965.9L-216.6-965.9z"/>
					</defs>
					<clipPath id="SVGID_1_">
						<use xlink:href="#SVGID_5_"  style="overflow:visible;"/>
					</clipPath>
					<g id="Mask_Group_38" transform="translate(0 0)" class="st1">
						<g id="_3135689" transform="translate(10.645 6.043)">
							<g id="Group_1361">
								<g id="Group_1350">
									<g id="Group_1349">
										<path id="Path_3059" class="st2" d="M-207.9-882.2v-79.4c0-2.3-1.9-4.2-4.2-4.3h-49.4c-2.3,0-4.2,1.9-4.2,4.3v79.5
											c0,2.3,1.9,4.2,4.2,4.3h49.4C-209.7-877.9-207.9-879.8-207.9-882.2z"/>
										<path id="Path_3060" class="st3" d="M-201.7-965.9h-12.1c2.3,0,4.2,1.9,4.2,4.3v79.5c0,2.3-1.9,4.3-4.2,4.3h12.1
											c2.3,0,4.2-1.9,4.2-4.3v-79.5C-197.5-964-199.4-965.9-201.7-965.9z"/>
										<path id="Path_3061" class="st4" d="M-203.7-869.5c2.3,0,4.2-1.9,4.2-4.3v-79.5c0-2.3-1.9-4.2-4.2-4.3h-49.4
											c-2.3,0-4.2,1.9-4.2,4.3v79.5c0,2.3,1.9,4.3,4.2,4.3H-203.7z"/>
										<path id="Path_3062" class="st5" d="M-193.3-957.5h-12.1c2.3,0,4.2,1.9,4.2,4.3v79.5c0,2.3-1.9,4.2-4.2,4.3h12.1
											c2.3,0,4.2-1.9,4.2-4.3v-79.6C-189.1-955.6-191-957.5-193.3-957.5z"/>
									</g>
								</g>
								<g id="Group_1357" transform="translate(15.348 18.888)">
									<g id="Group_1351" transform="translate(1.318)">
										<path id="Path_3063" class="st6" d="M-247.6-941.3h-15.1c-1.6,0-3-1.3-3-3v-18.6c0-1.6,1.3-3,3-3h15.1c1.6,0,3,1.3,3,3
											v18.7C-244.7-942.6-246-941.3-247.6-941.3L-247.6-941.3z"/>
										<path id="Path_3064" class="st7" d="M-255.2-950.7c-4.6,0-8.8,2.9-10.4,7.3c0.4,1.3,1.5,2.1,2.8,2.1h15.1
											c1.3,0,2.5-0.9,2.8-2.1C-246.4-947.8-250.5-950.7-255.2-950.7z"/>
										<ellipse id="Ellipse_18" class="st7" cx="-255.2" cy="-954.3" rx="4.7" ry="4.7"/>
									</g>
									<g id="Group_1356" transform="translate(0 33.556)">
										<g id="Group_1352">
											<path id="Path_3065" class="st7" d="M-214.4-963h-49.8c-0.8,0-1.4-0.6-1.4-1.4s0.6-1.4,1.4-1.4h49.8
												c0.8,0,1.4,0.6,1.4,1.4C-213-963.7-213.6-963-214.4-963z"/>
										</g>
										<g id="Group_1353" transform="translate(0 9.233)">
											<path id="Path_3066" class="st7" d="M-214.4-963h-49.8c-0.8,0-1.4-0.6-1.4-1.4s0.6-1.4,1.4-1.4l0,0h49.8
												c0.8,0,1.4,0.6,1.4,1.4C-213-963.7-213.6-963-214.4-963z"/>
										</g>
										<g id="Group_1354" transform="translate(0 18.467)">
											<path id="Path_3067" class="st7" d="M-214.4-963h-49.8c-0.8,0-1.4-0.6-1.4-1.4s0.6-1.4,1.4-1.4h49.8
												c0.8,0,1.4,0.6,1.4,1.4C-213-963.7-213.6-963-214.4-963z"/>
										</g>
										<g id="Group_1355" transform="translate(0 27.7)">
											<path id="Path_3068" class="st7" d="M-214.4-963h-49.8c-0.8,0-1.4-0.6-1.4-1.4s0.6-1.4,1.4-1.4l0,0h49.8
												c0.8,0,1.4,0.6,1.4,1.4C-213-963.7-213.6-963-214.4-963L-214.4-963z"/>
										</g>
									</g>
									<g id="Group_1362" transform="translate(31.507 7.079)">
										<g id="Group_1358" transform="translate(0 7.574)">
											<path id="Path_3069" class="st7" d="M-245.9-963h-18.3c-0.8,0-1.4-0.6-1.4-1.4s0.6-1.4,1.4-1.4h18.3
												c0.8,0,1.4,0.6,1.4,1.4C-244.5-963.7-245.1-963-245.9-963L-245.9-963z"/>
										</g>
										<g id="Group_1359">
											<path id="Path_3070" class="st7" d="M-245.9-963h-18.3c-0.8,0-1.4-0.6-1.4-1.4s0.6-1.4,1.4-1.4h18.3
												c0.8,0,1.4,0.6,1.4,1.4C-244.5-963.7-245.1-963-245.9-963L-245.9-963z"/>
										</g>
									</g>
								</g>
							</g>
						</g>
					</g>
				</g>
			</g>
		</g>
	</g>
	<g id="_3472620" transform="translate(66.2 67.377)">
		<g id="Group_1363" transform="translate(0 0)">
			<path id="Path_3071" class="st8" d="M-230.8-949.3l-3.9-4.4l0.6-5.9l-5.8-1.2l-2.9-5.1l-5.4,2.4l-0.7,14.2l0.7,14.2l5.4,2.4
				l2.9-5.1l5.8-1.2l-0.6-5.9L-230.8-949.3z"/>
			<path id="Path_3072" class="st9" d="M-253.6-965.9l-2.9,5.1l-5.8,1.2l0.6,5.9l-3.9,4.4l3.9,4.4l-0.6,5.9l5.8,1.2l2.9,5.1l5.4-2.4
				v-28.4L-253.6-965.9z"/>
		</g>
		<g id="Group_1364" transform="translate(9.912 11.409)">
			<path id="Union_1" class="st10" d="M-265.6-960.8l1.4-1.4l4.6,4.6l1.5-1.7l5.8-6.5l1.5,1.4l-7.3,8.2l-1.4,1.6L-265.6-960.8z"/>
		</g>
	</g>
</g>
<g>
	<g>
		<defs>
			<rect id="SVGID_7_" x="0.5" y="-2.5" width="97" height="37"/>
		</defs>
		<clipPath id="SVGID_2_">
			<use xlink:href="#SVGID_7_"  style="overflow:visible;"/>
		</clipPath>
		<g id="Mask_Group_39_1_" transform="translate(0 0)" class="st11">
			<g id="_3135689_1_" transform="translate(12.833 11.268)">
				<g id="Group_1361_1_">
					<g id="Group_1350_1_">
						<g id="Group_1349_1_">
							<path id="Path_3059_1_" class="st2" d="M58.3,81.2V1.7c0-2.3-1.9-4.2-4.2-4.3H4.7c-2.3,0-4.2,1.9-4.2,4.3v79.5
								c0,2.3,1.9,4.2,4.2,4.3h49.4C56.4,85.4,58.3,83.5,58.3,81.2z"/>
							<path id="Path_3060_1_" class="st3" d="M64.4-2.5H52.3c2.3,0,4.2,1.9,4.2,4.3v79.5c0,2.3-1.9,4.3-4.2,4.3h12.1
								c2.3,0,4.2-1.9,4.2-4.3V1.7C68.7-0.6,66.8-2.5,64.4-2.5z"/>
							<path id="Path_3061_1_" class="st5" d="M62.4,93.8c2.3,0,4.2-1.9,4.2-4.3V10.1c0-2.3-1.9-4.2-4.2-4.3H13
								c-2.3,0-4.2,1.9-4.2,4.3v79.5c0,2.3,1.9,4.3,4.2,4.3L62.4,93.8z"/>
							<path id="Path_3062_1_" class="st5" d="M72.8,5.8H60.7c2.3,0,4.2,1.9,4.2,4.3v79.5c0,2.3-1.9,4.2-4.2,4.3h12.1
								c2.3,0,4.2-1.9,4.2-4.3V10.1C77,7.7,75.1,5.8,72.8,5.8z"/>
						</g>
					</g>
					<g id="Group_1357_1_" transform="translate(15.348 18.888)">
						<g id="Group_1351_1_" transform="translate(1.318)">
							<path id="Path_3063_1_" class="st6" d="M18.5,22H3.4c-1.6,0-3-1.3-3-3V0.4c0-1.6,1.3-3,3-3h15.1c1.6,0,3,1.3,3,3v18.7
								C21.5,20.7,20.1,22,18.5,22L18.5,22z"/>
							<path id="Path_3064_1_" class="st7" d="M11,12.6c-4.6,0-8.8,2.9-10.4,7.3C1,21.2,2.1,22,3.4,22h15.1c1.3,0,2.5-0.9,2.8-2.1
								C19.8,15.5,15.6,12.6,11,12.6z"/>
							<ellipse id="Ellipse_18_1_" class="st7" cx="11" cy="9" rx="4.7" ry="4.7"/>
						</g>
						<g id="Group_1356_1_" transform="translate(0 33.556)">
							<g id="Group_1352_1_">
								<path id="Path_3065_1_" class="st7" d="M51.7,0.3H1.9c-0.8,0-1.4-0.6-1.4-1.4s0.6-1.4,1.4-1.4h49.8c0.8,0,1.4,0.6,1.4,1.4
									C53.2-0.3,52.5,0.3,51.7,0.3z"/>
							</g>
							<g id="Group_1353_1_" transform="translate(0 9.233)">
								<path id="Path_3066_1_" class="st7" d="M51.7,0.3H1.9c-0.8,0-1.4-0.6-1.4-1.4s0.6-1.4,1.4-1.4l0,0h49.8
									c0.8,0,1.4,0.6,1.4,1.4C53.2-0.3,52.5,0.3,51.7,0.3z"/>
							</g>
							<g id="Group_1354_1_" transform="translate(0 18.467)">
								<path id="Path_3067_1_" class="st7" d="M51.7,0.3H1.9c-0.8,0-1.4-0.6-1.4-1.4s0.6-1.4,1.4-1.4h49.8c0.8,0,1.4,0.6,1.4,1.4
									C53.2-0.3,52.5,0.3,51.7,0.3z"/>
							</g>
							<g id="Group_1355_1_" transform="translate(0 27.7)">
								<path id="Path_3068_1_" class="st7" d="M51.7,0.3H1.9c-0.8,0-1.4-0.6-1.4-1.4s0.6-1.4,1.4-1.4l0,0h49.8
									c0.8,0,1.4,0.6,1.4,1.4C53.2-0.3,52.5,0.3,51.7,0.3L51.7,0.3z"/>
							</g>
						</g>
						<g id="Group_1362_1_" transform="translate(31.507 7.079)">
							<g id="Group_1358_1_" transform="translate(0 7.574)">
								<path id="Path_3069_1_" class="st7" d="M20.2,0.3H1.9c-0.8,0-1.4-0.6-1.4-1.4s0.6-1.4,1.4-1.4h18.3c0.8,0,1.4,0.6,1.4,1.4
									C21.7-0.3,21,0.3,20.2,0.3L20.2,0.3z"/>
							</g>
							<g id="Group_1359_1_">
								<path id="Path_3070_1_" class="st7" d="M20.2,0.3H1.9c-0.8,0-1.4-0.6-1.4-1.4s0.6-1.4,1.4-1.4h18.3c0.8,0,1.4,0.6,1.4,1.4
									C21.7-0.3,21,0.3,20.2,0.3L20.2,0.3z"/>
							</g>
						</g>
					</g>
				</g>
			</g>
		</g>
	</g>
</g>
</svg>
