<?xml version="1.0" encoding="utf-8"?>
<!-- Generator: Adobe Illustrator 22.1.0, SVG Export Plug-In . SVG Version: 6.00 Build 0)  -->
<svg version="1.1" id="Layer_1" xmlns="http://www.w3.org/2000/svg" xmlns:xlink="http://www.w3.org/1999/xlink" x="0px" y="0px"
	 width="104px" height="105.8px" viewBox="0 0 104 105.8" style="enable-background:new 0 0 104 105.8;" xml:space="preserve">
<style type="text/css">
	.st0{fill:#EDEFF1;}
	.st1{fill:#AC7352;}
	.st2{fill:#D3A489;}
	.st3{fill:#E5BFA3;}
	.st4{opacity:8.000000e-02;fill:#FFFFFF;enable-background:new    ;}
	.st5{fill:#0265FF;}
	.st6{fill:#333333;}
	.st7{opacity:0.56;enable-background:new    ;}
	.st8{opacity:0.1;enable-background:new    ;}
	.st9{fill:#F9EED7;}
	.st10{fill:#777777;}
	.st11{fill:#FFFFFF;}
	.st12{opacity:0.1;fill:#FFFFFF;enable-background:new    ;}
	.st13{fill:#03BB6D;}
</style>
<g id="Group_2117" transform="translate(-6893 -10149)">
	<g id="_544532" transform="translate(1066.368 966)">
		<path class="st0" d="M5927.8,9235.9c0,5.3-0.9,10.5-2.5,15.3c-0.7,2.2-1.6,4.3-2.7,6.4c-7.2,14.4-21.5,24.8-38.3,26.8
			c-0.8,0.1-1.6,0.2-2.5,0.2c-0.3,0-0.7,0-1,0.1c-0.2,0-0.4,0-0.5,0c-1.5,0.1-3.1,0-4.6,0c-0.7,0-1.4-0.1-2.1-0.2c0,0,0,0-0.1,0
			c-0.4,0-0.9-0.1-1.3-0.2c-0.3,0-0.5-0.1-0.8-0.1c-0.1,0-0.3,0-0.4-0.1c-0.4-0.1-0.8-0.1-1.3-0.2c-0.3,0-0.6-0.1-0.8-0.1
			c-0.1,0-0.1,0-0.2,0c-13.4-2.7-24.8-10.8-31.9-21.9c-0.2-0.3-0.4-0.7-0.6-1c-4.3-7.3-6.8-15.8-6.8-24.8c0-27,22-48.8,49.2-48.8
			c11.9,0,22.7,4.1,31.2,11.1l0,0l0,0c0.4,0.3,0.8,0.6,1.2,1c1,0.8,1.9,1.7,2.8,2.7c2,2,3.7,4.1,5.3,6.4c0.7,1,1.3,2,1.9,3l0,0l0,0
			l0,0C5925.4,9218.5,5927.8,9226.9,5927.8,9235.9z"/>
		<rect id="Rectangle_628" x="5901" y="9228.8" class="st1" width="11.6" height="7.5"/>
		<g id="Group_1655" transform="translate(62.405 25.67)">
			<circle id="Ellipse_66" class="st2" cx="5832.9" cy="9190.7" r="3.6"/>
			<circle id="Ellipse_67" class="st3" cx="5855.5" cy="9190.7" r="3.6"/>
			<path id="Path_4043" class="st4" d="M5841.7,9203.2h-3.1v3.2l0,0v4.1h3.1c0-1.1,0.9-2.9,1.9-2.9c0.2,0,0.4,0,0.6,0
				c2.1,0,4.1-0.5,6-1.5v-3h-8.5V9203.2z"/>
		</g>
		<path id="Path_4041" class="st5" d="M5925.4,9242.2v9.1c-0.3,0.9-0.6,1.8-1,2.7c-0.5,1.3-1,2.5-1.6,3.7h-34.9v-15.4
			c0-1.2,0.7-2.3,1.7-2.8l8.7-4.4h16.6l8.7,4.4C5924.7,9239.9,5925.4,9241,5925.4,9242.2z"/>
		<path id="Path_4044" class="st1" d="M5918.9,9202.2l-25.2-1.9v19.2c0,7.1,5.8,12.9,12.9,12.9l0,0l0,0c7.1,0,12.9-5.8,12.9-12.9
			l0,0L5918.9,9202.2L5918.9,9202.2z"/>
		<path id="Path_4045" class="st4" d="M5908.5,9199.2h-11c-1.2,0-2.3,0.4-3.2,1.1h-0.5v0.5c-1,1-1.6,2.4-1.6,3.8v7.9
			c0,0.9,0.7,1.7,1.6,1.9v5.2c0,7.1,5.8,12.9,12.9,12.9l0,0c0.5,0,1,0,1.4-0.1c-6.5-0.7-11.5-6.2-11.5-12.8v-7.6
			c0-1.2,0.9-2.2,2.1-2.2h0.1l0,0c1.2,0,2.4,0.4,3.3,1.2c1.2,1.1,2.8,1.7,4.5,1.6c3.4-0.4,3.3-2.6,4.5-3.6c0.9-0.8,2.1-1.2,3.3-1.2
			h0.1c1.6,0,2.8-0.6,2.8,1c0,1,0.8,5.8,1.9,5.8c1.1,0,1.9-0.8,2-1.9l0,0C5921.1,9197.4,5911.3,9199.2,5908.5,9199.2z"/>
		<path id="Path_4046" class="st6" d="M5921.1,9204.3v10.5c0,1.1-0.9,1.9-1.9,1.9l0,0c-1,0-1.9-0.9-1.9-2v-3.3
			c0-1.6-1.3-2.8-2.8-2.8c-1.2,0-2.4,0.4-3.3,1.2c-2.6,2.1-6.4,2.1-9,0c-0.2-0.1-0.3-0.3-0.5-0.4l0,0c-0.3-0.2-0.7-0.4-1.1-0.5
			c-0.6-0.2-1.2-0.3-1.8-0.3c-1.6,0-2.8,1.3-2.8,2.8v3.3c0,1.1-0.9,1.9-1.9,1.9c-1.1,0-1.9-0.9-1.9-1.9v-11.2c0-2.9,2.4-5.3,5.3-5.3
			l0,0h11c0,0,5.6-0.4,8.8,1.1C5919.2,9200.3,5920.6,9202.1,5921.1,9204.3z"/>
		<path id="Path_4047" class="st7" d="M5897.6,9203.5c0-2.9,2.4-5.3,5.3-5.3h-5.4c-2.9,0-5.3,2.4-5.3,5.3v11.2
			c0,1.1,0.9,1.9,1.9,1.9s1.9-0.9,1.9-1.9v-3.3c0-1.1,0.6-2.1,1.6-2.5V9203.5L5897.6,9203.5z"/>
		<g id="Group_1658" transform="translate(64.93 45.442)">
			<path id="Path_4062" class="st8" d="M5854,9203.4l-3.8,1.4l-3.8-1.4v-6.6h7.6V9203.4z"/>
			<path id="Path_4063" class="st8" d="M5836.9,9203.4l-3.8,1.4l-3.8-1.4v-6.6h7.6V9203.4z"/>
		</g>
		<path id="Path_4064" class="st9" d="M5911.2,9255h-4c-0.3,0-0.5,0.2-0.5,0.5l0,0c0,0.3,0.2,0.5,0.5,0.5h4c0.3,0,0.5-0.2,0.5-0.5
			l0,0C5911.7,9255.2,5911.5,9255,5911.2,9255z"/>
		<path class="st6" d="M5924.4,9253.6c-0.5,1.4-1.1,2.7-1.8,4c-0.1,0.2-0.2,0.5-0.4,0.7c-7.8,14.9-22.2,24.2-37.9,26
			c-0.8,0.1-1.7,0.2-2.5,0.2c-0.3,0-0.7,0-1,0c-0.2,0-0.4,0-0.5,0c-1.5,0.1-3.1,0-4.6,0c-0.7,0-1.4-0.1-2.1-0.2c0,0,0,0-0.1,0
			c-0.4-0.1-0.9-0.1-1.3-0.2c-0.3,0-0.5-0.1-0.8-0.1c-0.1,0-0.3,0-0.4-0.1c-0.4-0.1-0.8-0.1-1.3-0.2c-0.3,0-0.6-0.1-0.8-0.2
			c-0.1,0-0.1,0-0.2,0c-3.5-0.7-6.9-1.8-10.2-3.3v-26.8h65.9V9253.6z"/>
		<g id="Group_1749">
			<path id="Path_4067" class="st10" d="M5876,9244.1h26c1.3,0,2,1.7,2,3v18h-30v-18C5874,9245.8,5874.7,9244.1,5876,9244.1z"/>
			<g id="Component_55_1" transform="translate(55.252 63.416)">
				<path id="Path_40995" class="st11" d="M5836.2,9187.1c0.7,0,1.3,0.6,1.3,1.3l0,0c0,0.1,0,0.2,0,0.3v0.1l-0.5,1.7l-0.3,1
					c-0.1,0.4-0.5,0.7-0.9,0.7h-3.3c-0.5,0-0.9-0.4-0.9-0.9l0,0c0-0.1,0-0.1,0-0.2l0,0c0.1-0.4,0.4-0.6,0.8-0.7h2.4
					c0.2,0,0.5-0.2,0.5-0.4l0.3-1.3L5836.2,9187.1L5836.2,9187.1L5836.2,9187.1z"/>
				<path id="Path_40994" class="st11" d="M5834.2,9188.3L5834.2,9188.3c0.4,0,0.8,0.4,0.8,0.8l0,0c0,0.1,0,0.1,0,0.2l0,0
					c-0.1,0.3-0.4,0.6-0.8,0.6l0,0c-0.4,0-0.8-0.4-0.8-0.8l0,0c0-0.1,0-0.1,0-0.2l0,0C5833.5,9188.5,5833.9,9188.3,5834.2,9188.3z"
					/>
				<path id="Path_40996" class="st11" d="M5834,9192.9L5834,9192.9l-0.2,0.7c-0.1,0.6-0.7,0.9-1.2,0.9h-2.4c-0.4,0-0.8-0.4-0.8-0.8
					l0,0c0-0.1,0-0.1,0-0.2l0,0c0.1-0.4,0.4-0.6,0.8-0.6H5834L5834,9192.9z"/>
			</g>
			<path id="Path_4091" class="st12" d="M5904,9265.1l-16.8,9.1l0.5-9.1H5904z"/>
		</g>
		<g id="Group_1805">
			<g id="Group_1807" transform="translate(-2.944 4.226)">
				<g id="Group_1808" transform="translate(0 2)">
					<path id="Path_4178" class="st2" d="M5870.6,9238.9v5.4c0,0.7,0.4,1.3,1,1.7l0.8,0.4h-22.2l1.7-0.8c1.3-0.6,2-1.9,2-3.3v-31
						h26.3v14.8C5880.3,9233,5877,9237.3,5870.6,9238.9z"/>
					<path id="Path_4180" d="M5861.4,9200.1h13c5.1,0,8.4,3.4,8.4,8.5c0,2-1.7,3.7-3.7,3.7l0,0c-3.1,0-4.7,3.2-4.7,6.3v5.6
						c0,5.1-4.1,9.3-9.3,9.3l0,0h-9.3c-4.1,0-7.4-3.3-7.4-7.4v-13C5848.4,9205.9,5854.2,9200.1,5861.4,9200.1z"/>
					<path id="Path_4181" d="M5876.2,9200.1c5.1,0,9.3,4.1,9.3,9.3l0,0c0,2-1.7,3.7-3.7,3.7l0,0h-1.9c-3.1,0-5.6,2.5-5.6,5.6v-18.6
						H5876.2z"/>
				</g>
				<path class="st13" d="M5885.8,9249.9L5885.8,9249.9l-0.7,11l-1.3,19.5l0,0c-0.2,0-0.4,0-0.5,0c-1.5,0.1-3.1,0-4.6,0
					c-0.7,0-1.4-0.1-2.1-0.2c0,0,0,0-0.1,0c-0.4,0-0.9-0.1-1.3-0.2c-0.3,0-0.5-0.1-0.8-0.1c-0.1,0-0.3,0-0.4-0.1
					c-0.4-0.1-0.8-0.1-1.3-0.2c-0.3,0-0.6-0.1-0.8-0.1c-0.1,0-0.1,0-0.2,0c-13.4-2.7-24.8-10.8-31.9-21.9c-0.2,0.2-0.4,0.3-0.6,0.5
					v-5.5c0-2.8,1.6-5.4,4.1-6.6l7-3.5l3.7-0.6l5.5-0.9l11.2,1.2l1.8,0.2l4.5,2.2l6.3,3.1c0.8,0.4,1.5,0.9,2.1,1.6
					C5885.5,9249.5,5885.6,9249.7,5885.8,9249.9z"/>
				<path class="st8" d="M5887.3,9254.4v25.7c-0.8,0.1-1.6,0.2-2.5,0.2c-0.3,0-0.7,0-1,0.1c-0.2,0-0.4,0-0.5,0c-1.5,0.1-3.1,0-4.6,0
					c-0.7,0-1.4-0.1-2.1-0.2c0,0,0,0-0.1,0c-0.4,0-0.9-0.1-1.3-0.2c-0.3,0-0.5-0.1-0.8-0.1v-16.4l0,0c0-0.2,0-0.3,0-0.5l0,0
					c0-0.7,0.2-1.4,0.4-2.1c0.4-1.4,1.2-2.7,2.2-3.8c0.3-0.3,0.6-0.6,0.9-0.8l8-6.4l0,0C5886.8,9251.2,5887.3,9252.8,5887.3,9254.4z
					"/>
			</g>
			<g id="Group_1806">
				<path d="M5871.5,9267.6l-0.1,0.5l-2.5,15.6l0,0c-0.1,0-0.1,0-0.2,0c-13.4-2.7-24.8-10.8-31.9-21.9c1.1-0.8,2.5-1.3,4-1.3h20.9
					c3.8,0,8.7,2.2,9.6,6.8l0,0C5871.4,9267.4,5871.5,9267.5,5871.5,9267.6z"/>
				<path class="st6" d="M5872.2,9267.4v16.9c-0.3,0-0.5-0.1-0.8-0.1c-0.1,0-0.3,0-0.4-0.1c-0.4-0.1-0.8-0.1-1.3-0.2
					c-0.3,0-0.6-0.1-0.8-0.1c-0.1,0-0.1,0-0.2,0v-16.3c0-3.8-3.1-7-7-7h3.5c3,0,5.6,1.9,6.6,4.6
					C5872,9265.8,5872.2,9266.6,5872.2,9267.4z"/>
			</g>
		</g>
	</g>
</g>
</svg>
