<?xml version="1.0" encoding="utf-8"?>
<!-- Generator: Adobe Illustrator 22.1.0, SVG Export Plug-In . SVG Version: 6.00 Build 0)  -->
<svg version="1.1" id="Layer_1" xmlns="http://www.w3.org/2000/svg" xmlns:xlink="http://www.w3.org/1999/xlink" x="0px" y="0px"
	 width="104px" height="105.8px" viewBox="0 0 104 105.8" style="enable-background:new 0 0 104 105.8;" xml:space="preserve">
<style type="text/css">
	.st0{fill:#EDEFF1;}
	.st1{fill:url(#Path_3200-2_1_);}
	.st2{fill:#FFFFFF;}
	.st3{fill:url(#Path_3202-2_1_);}
	.st4{fill:#0265FF;}
	.st5{fill:#03BB6D;}
	.st6{opacity:0.24;fill:#003280;enable-background:new    ;}
	.st7{opacity:0.5;fill:#FFFFFF;enable-background:new    ;}
	.st8{fill:#FFCC00;}
	.st9{opacity:5.000000e-02;enable-background:new    ;}
</style>
<g id="_1069124-2" transform="translate(-6361.901 -9186)">
	<path id="Path_3199-2" class="st0" d="M6376.4,9273.9c-19.5-20.6-18.6-53.2,2-72.7s53.2-18.6,72.7,2c18.8,19.8,18.8,50.8,0,70.7
		v-2.4h-74.7V9273.9L6376.4,9273.9z"/>
	
		<linearGradient id="Path_3200-2_1_" gradientUnits="userSpaceOnUse" x1="6335.6777" y1="8918.2676" x2="6335.6777" y2="8919.2676" gradientTransform="matrix(26.116 0 0 26.116 -159010.4063 -223712.3281)">
		<stop  offset="0" style="stop-color:#EDEFF1"/>
		<stop  offset="1" style="stop-color:#D5D5D5"/>
	</linearGradient>
	<path id="Path_3200-2" class="st1" d="M6446.1,9197.1h12.1c3.9,0,7,3.1,7,7v15.1c0,2.2-1.8,4-4,4h-15.1c-3.9,0-7-3.1-7-7v-12
		C6439.1,9200.3,6442.2,9197.1,6446.1,9197.1z"/>
	<path id="Path_3201-2" class="st2" d="M6460.2,9197.1c-3.9,0-7,3.1-7,7l0,0v67.4c-18.3,21.7-50.7,24.6-72.5,6.3
		c-2.1-1.8-4.1-3.7-5.9-5.8v-67.8c0-3.9,3.1-7,7-7C6381.8,9197.1,6460.2,9197.1,6460.2,9197.1z"/>
	
		<linearGradient id="Path_3202-2_1_" gradientUnits="userSpaceOnUse" x1="5534.8008" y1="8919.1514" x2="5548.4609" y2="8919.1514" gradientTransform="matrix(1 0 0 -1 840 18157.002)">
		<stop  offset="0" style="stop-color:#EDEFF1"/>
		<stop  offset="1" style="stop-color:#D5D5D5"/>
	</linearGradient>
	<path id="Path_3202-2" class="st3" d="M6381.4,9278.5c-2.4-1.9-4.6-4.1-6.6-6.4v-67.9c0-3.9,3.1-7,7-7h6.6c-3.9,0-7,3.1-7,7V9278.5
		z"/>
	<path id="Path_3203" class="st0" d="M6438.2,9225.3h-43.3c-4.8-0.2-8.6-4.2-8.5-9l0,0c-0.2-4.8,3.6-8.9,8.5-9h43.3
		c4.8,0.2,8.6,4.2,8.5,9l0,0C6446.9,9221.1,6443.1,9225.1,6438.2,9225.3z"/>
	<path id="Path_3204" class="st4" d="M6446.4,9224.1C6446.3,9224.1,6446.3,9224,6446.4,9224.1l-0.8-0.8l-1-1l-2.7-2.7
		c1.8-3.4,0.6-7.6-2.8-9.5c0,0,0,0-0.1,0c-3.4-1.9-7.7-0.6-9.5,2.8c-1.8,3.4-0.6,7.7,2.8,9.5c2.1,1.1,4.6,1.1,6.7,0l2.2,2.2l2.2,2.2
		c0.8,0.8,2,0.8,2.9,0C6447.1,9226.1,6447.1,9224.9,6446.4,9224.1z M6437.8,9218.4c-0.6,0.6-1.4,0.9-2.1,0.9c-0.7,0-1.5-0.3-2.1-0.9
		c-1.2-1.2-1.2-3.1,0-4.3c1.2-1.2,3.1-1.2,4.3,0C6439,9215.3,6439,9217.2,6437.8,9218.4z"/>
	<path id="Path_3205" class="st5" d="M6397.4,9214.1c-0.6-0.6-1.4-0.9-2.1-0.9c-0.7,0-1.5,0.3-2.1,0.9c-1.2,1.2-1.2,3.1,0,4.3
		c1.2,1.2,3.1,1.2,4.3,0C6398.6,9217.2,6398.6,9215.3,6397.4,9214.1z M6407.5,9214.1c-0.6-0.6-1.4-0.9-2.1-0.9
		c-0.8,0-1.5,0.3-2.1,0.9c-1.2,1.2-1.2,3.1,0,4.3c1.2,1.2,3.1,1.2,4.3,0C6408.6,9217.2,6408.6,9215.3,6407.5,9214.1z M6417.5,9214.1
		c-1.2-1.2-3.1-1.2-4.3,0c-1.2,1.2-1.2,3.1,0,4.3c1.2,1.2,3.1,1.2,4.3,0c0.6-0.6,0.9-1.4,0.9-2.1
		C6418.4,9215.5,6418.1,9214.7,6417.5,9214.1z"/>
	<path id="Path_3206-2" class="st6" d="M6437.7,9233.3h-40.6c-0.5,0-1,0.5-1,1v2c0,0.5,0.5,1,1,1h40.6c0.5,0,1-0.5,1-1v-2l0,0
		C6438.7,9233.7,6438.2,9233.3,6437.7,9233.3z M6429.7,9241.3h-32.5c-0.5,0-1,0.5-1,1v2c0,0.6,0.5,1,1,1h32.5c0.6,0,1-0.5,1-1v-2
		C6430.7,9241.8,6430.2,9241.3,6429.7,9241.3z M6437.7,9261.4L6437.7,9261.4h-40.6c-0.5,0-1,0.5-1,1v2c0,0.5,0.5,1,1,1h40.6
		c0.6,0,1-0.5,1-1v-2C6438.7,9261.9,6438.3,9261.4,6437.7,9261.4z M6429.7,9269.5h-32.5c-0.5,0-1,0.4-1,1v2c0,0.5,0.5,1,1,1h32.5
		c0.6,0,1-0.5,1-1v-2C6430.7,9269.9,6430.2,9269.5,6429.7,9269.5z"/>
	<path id="Path_3207-2" class="st7" d="M6419.6,9249.4h-22.5c-0.5,0-1,0.5-1,1v2c0,0.5,0.5,1,1,1h22.5c0.5,0,1-0.5,1-1v-2
		C6420.6,9249.8,6420.2,9249.4,6419.6,9249.4z M6419.6,9277.5h-22.5c-0.5,0-1,0.5-1,1v2c0,0.5,0.5,1,1,1h22.5c0.5,0,1-0.5,1-1v-2
		C6420.6,9277.9,6420.2,9277.5,6419.6,9277.5z"/>
	<path id="Path_3208" class="st8" d="M6390.2,9240.5c0.1-0.1,0.3-0.3,0.3-0.5c0.1-0.5-0.3-1-0.8-1.1l-6.3-0.9
		c-0.3,0-0.6-0.2-0.7-0.5l-1.3-2.5l-1.6-3.2c-0.1-0.2-0.2-0.3-0.4-0.4c-0.5-0.2-1,0-1.3,0.4l-2.8,5.7c-0.1,0.2-0.3,0.4-0.6,0.5l0,0
		h-0.1l-3.3,0.5l-3,0.4c0,0-0.1,0-0.2,0c-0.1,0-0.3,0.1-0.4,0.2c-0.4,0.4-0.4,1,0,1.3l4.6,4.4l0.1,0.1c0.1,0.1,0.1,0.2,0.1,0.3
		c0,0.1,0,0.1,0,0.2v0.1c0,0,0,0,0,0.1l-1.1,6.3c0,0.1,0,0.3,0,0.4l0,0c0,0.1,0,0.2,0.1,0.2c0,0.1,0.1,0.2,0.2,0.2
		c0.3,0.3,0.7,0.4,1.1,0.2l1.8-1l0,0l3.8-2c0.3-0.1,0.6-0.1,0.9,0l2,1l3.7,1.9c0.2,0.1,0.4,0.1,0.6,0.1c0.5-0.1,0.8-0.6,0.8-1.1
		l-0.8-4.8l-0.3-1.5c0-0.3,0-0.6,0.3-0.8L6390.2,9240.5z M6390.2,9267.3c-0.1-0.2-0.3-0.2-0.5-0.3l-6.3-0.9c-0.3,0-0.6-0.2-0.7-0.5
		l-1.3-2.5l-1.6-3.2c-0.2-0.5-0.8-0.6-1.2-0.4c-0.2,0.1-0.3,0.2-0.4,0.4l-2.8,5.7c-0.1,0.2-0.3,0.4-0.6,0.5l0,0h-0.1l-3.3,0.5
		l-0.6,0.1l-2.4,0.3c-0.1,0-0.1,0-0.2,0c-0.1,0-0.2,0.1-0.3,0.2l-0.1,0.1c-0.2,0.2-0.3,0.5-0.2,0.7c0,0.2,0.1,0.4,0.3,0.5l0,0
		l4.6,4.4c0.2,0.2,0.3,0.5,0.3,0.8l-1.1,6.3c-0.1,0.5,0.3,1,0.8,1.1c0.2,0,0.4,0,0.6-0.1l5.6-3c0.1,0,0.1-0.1,0.2-0.1h0.1
		c0.1,0,0.1,0,0.2,0h0.1c0.1,0,0.1,0,0.2,0.1l5.4,2.8l0,0l0.2,0.1c0.5,0.2,1,0.1,1.3-0.4c0.1-0.2,0.1-0.4,0.1-0.6l-0.8-4.8l-0.3-1.5
		c0-0.3,0-0.6,0.3-0.8l1.7-1.6l2.9-2.8C6390.6,9268.3,6390.6,9267.7,6390.2,9267.3z"/>
	<path id="Path_3209" class="st9" d="M6385.6,9247.3c-0.4,0-0.8,0.1-1.2,0.1c-1,0-2-0.1-3-0.3c-2.5-0.5-4.8-1.8-6.6-3.5l0,0
		c-1.5-1.4-2.6-3.1-3.4-5l-3,0.4c0,0-0.1,0-0.2,0c-0.1,0-0.3,0.1-0.4,0.2l0,0c-0.4,0.4-0.4,1,0,1.3l4.6,4.4l0.1,0.1
		c0.1,0.1,0.1,0.2,0.1,0.3c0,0.1,0,0.1,0,0.2v0.1v0.1l-1.1,6.3c0,0.1,0,0.3,0,0.4l0,0c0,0.1,0,0.1,0.1,0.2c0,0.1,0.1,0.1,0.2,0.2
		c0.3,0.3,0.7,0.4,1.1,0.2l1.8-1l0,0l3.8-2c0.3-0.1,0.6-0.1,0.9,0l2,1l3.7,1.9c0.2,0.1,0.4,0.1,0.6,0.1c0.5-0.1,0.8-0.6,0.8-1.1
		L6385.6,9247.3z M6386.4,9280.2l-0.8-4.8c-0.4,0-0.8,0-1.2,0c-1,0-2-0.1-3-0.3c-1.8-0.4-3.5-1.2-5-2.2c-0.6-0.4-1.1-0.8-1.6-1.3
		l0,0c-1.5-1.4-2.6-3.1-3.4-5l0,0l-0.6,0.1l-2.4,0.3c-0.1,0-0.1,0-0.2,0c-0.1,0-0.2,0.1-0.3,0.2l-0.1,0.1c-0.2,0.2-0.3,0.5-0.2,0.7
		c0,0.2,0.1,0.4,0.3,0.5l4.6,4.5c0.2,0.2,0.3,0.5,0.3,0.8l-1.1,6.3c-0.1,0.5,0.3,1,0.8,1.1c0.2,0,0.4,0,0.6-0.1l5.6-3
		c0.1,0,0.1-0.1,0.2-0.1h0.1c0.1,0,0.1,0,0.2,0h0.1c0.1,0,0.1,0,0.2,0.1l5.4,2.8l0,0l0.2,0.1c0.5,0.2,1,0.1,1.3-0.4
		C6386.4,9280.6,6386.5,9280.4,6386.4,9280.2z"/>
</g>
</svg>
