<?xml version="1.0" encoding="utf-8"?>
<!-- Generator: Adobe Illustrator 22.1.0, SVG Export Plug-In . SVG Version: 6.00 Build 0)  -->
<svg version="1.1" id="Layer_1" xmlns="http://www.w3.org/2000/svg" xmlns:xlink="http://www.w3.org/1999/xlink" x="0px" y="0px"
	 width="104px" height="105.8px" viewBox="0 0 104 105.8" style="enable-background:new 0 0 104 105.8;" xml:space="preserve">
<style type="text/css">
	.st0{fill:#EDEFF1;}
	.st1{fill:#2A2F4F;}
	.st2{fill:#3D4159;}
	.st3{fill:#FFFFFF;}
	.st4{fill:#DBB39D;}
	.st5{fill:#D3A489;}
	.st6{fill:#2E2E2E;}
	.st7{fill:#333333;}
	.st8{opacity:0.1;enable-background:new    ;}
	.st9{fill:#0265FF;}
	.st10{fill:#00D264;}
	.st11{enable-background:new    ;}
</style>
<g id="Group_2115" transform="translate(-6084.963 -9182.005)">
	<g id="_1256645_1_2" transform="translate(0.611 0.004)">
		<path class="st0" d="M6184.7,9235.3c0,16.8-8.5,31.5-21.5,40.2c-7.6,5.1-16.8,8-26.6,8c-9.8,0-19-2.9-26.6-8
			c-13-8.6-21.6-23.4-21.6-40.2c0-15.3,7.1-28.9,18.2-37.7c4.9-3.9,10.5-6.8,16.6-8.6c4.3-1.2,8.8-1.9,13.4-1.9s9.1,0.6,13.4,1.9
			c6,1.8,11.7,4.7,16.7,8.7C6178,9206.8,6184.7,9220.6,6184.7,9235.3z"/>
		<g id="Group_1390-2" transform="translate(16.483 14.16)">
			<path id="Path_3317-2" class="st1" d="M6150,9208h-3.3v-20.9h3.3c1.3,0,2.3,1,2.3,2.3v16.3C6152.3,9207,6151.2,9208,6150,9208
				L6150,9208z"/>
			<path id="Path_3318-2" class="st1" d="M6089.8,9195.6h4.1v-8.5h-4.1c-0.8,0-1.5,0.7-1.5,1.5v5.5
				C6088.3,9194.9,6089,9195.6,6089.8,9195.6L6089.8,9195.6z"/>
			<path id="Path_3319-2" class="st1" d="M6089.8,9205.3h4.1v-8.5h-4.1c-0.8,0-1.5,0.7-1.5,1.5l0,0v5.5
				C6088.3,9204.7,6089,9205.3,6089.8,9205.3L6089.8,9205.3L6089.8,9205.3z"/>
		</g>
		<path id="Path_3320-2" class="st2" d="M6166.6,9198v74.9c-17.6,14.1-42.6,14.1-60.2,0V9198c0-0.1,0-0.2,0-0.3
			c0.2-4.8,4.2-8.7,9-8.7h42.2c4.8,0,8.8,3.8,9,8.7C6166.6,9197.7,6166.6,9197.9,6166.6,9198L6166.6,9198z"/>
		<path class="st3" d="M6163.2,9198.8v76.6c-7.6,5.1-16.8,8-26.6,8c-9.8,0-19-2.9-26.6-8v-76.6c0-2.8,1.8-5.1,3.9-5.1h45.4
			C6161.4,9193.8,6163.2,9196,6163.2,9198.8z"/>
		<g id="Group_1392-2" transform="translate(37.189 13.573)">
			<path id="Path_3218-2" class="st4" d="M6093.9,9201.5c0,1.5-1.3,2.8-2.8,2.8s-2.8-1.3-2.8-2.8s1.3-2.8,2.8-2.8l0,0
				C6092.7,9198.7,6093.9,9200,6093.9,9201.5z"/>
			<path id="Path_3219-2" class="st5" d="M6110.5,9201.5c0,1.5-1.3,2.8-2.8,2.8s-2.8-1.3-2.8-2.8s1.3-2.8,2.8-2.8l0,0
				C6109.3,9198.7,6110.5,9200,6110.5,9201.5z"/>
			<path id="Path_3220-2" class="st5" d="M6099.5,9211.6c-4.6,0-8.3-3.7-8.3-8.3l0,0v-10.7h16.6v10.7
				C6107.8,9207.9,6104,9211.6,6099.5,9211.6L6099.5,9211.6z"/>
			<path id="Path_3221-2" class="st4" d="M6100.6,9211.5c-4.5,0.7-8.8-2.5-9.4-7c-0.1-0.4-0.1-0.8-0.1-1.2v-10.7h2.4v10.7
				C6093.5,9207.4,6096.6,9210.9,6100.6,9211.5L6100.6,9211.5z"/>
			<path id="Path_3222-2" class="st6" d="M6092.9,9194.4l-2.6,1.3v5.9c1.4,0,2.6-1.2,2.6-2.6V9194.4z"/>
			<path id="Path_3223-2" class="st7" d="M6106,9189.9h2.6v11.7c-1.4,0-2.6-1.2-2.6-2.6V9189.9z"/>
			<path id="Path_3224-2" class="st7" d="M6104.8,9195.7h-14.5c0-4.6,3.7-8.3,8.3-8.3l0,0c0,0,4.3-0.7,6.9,0s2.8,1.7,3,2.7
				C6109.1,9192.4,6108.2,9195.7,6104.8,9195.7L6104.8,9195.7z"/>
			<path id="Path_3225-2" class="st8" d="M6102.6,9187.4h-3.9c-4.6,0-8.3,3.7-8.3,8.3l0,0h3.9
				C6094.2,9191.1,6098,9187.4,6102.6,9187.4L6102.6,9187.4z"/>
		</g>
	</g>
	<g id="_2504957-2" transform="translate(29.171 43.209)">
		<path id="Path_3153-2" class="st9" d="M6101,9203.9h-8.4c-2.3,0-4.2-1.9-4.2-4.2l0,0v-8.4c0-2.3,1.9-4.2,4.2-4.2l0,0h8.4
			c2.3,0,4.2,1.9,4.2,4.2l0,0v8.4C6105.2,9202,6103.3,9203.9,6101,9203.9L6101,9203.9L6101,9203.9z"/>
		<path id="Path_3154-2" class="st10" d="M6123.4,9203.9h-8.4c-2.3,0-4.2-1.9-4.2-4.2l0,0v-8.4c0-2.3,1.9-4.2,4.2-4.2l0,0h8.4
			c2.3,0,4.2,1.9,4.2,4.2l0,0v8.4C6127.6,9202,6125.7,9203.9,6123.4,9203.9L6123.4,9203.9L6123.4,9203.9z"/>
		<g id="Group_1375-2" transform="translate(25.039 2.1)">
			<path id="Path_3155-2" class="st3" d="M6099.6,9190.1c-1.7-2.9-5.4-3.8-8.3-2.1s-3.8,5.4-2.1,8.3l-0.7,2.5v0.1
				c0,0.1,0.2,0.2,0.3,0.2l2.5-0.7c1.9,1.1,4.3,1.1,6.2,0C6100.3,9196.6,6101.3,9192.9,6099.6,9190.1z M6098.7,9195.7
				c-1.4,2.4-4.5,3.1-6.8,1.7c-0.1-0.1-0.3-0.1-0.4-0.1l-1.8,0.5c0,0,0.3-1.2,0.5-1.8c0-0.1,0-0.3-0.1-0.4c-0.9-1.6-0.9-3.5,0-5.1
				c1.4-2.4,4.5-3.1,6.8-1.7C6099.3,9190.3,6100.1,9193.3,6098.7,9195.7z"/>
			<path id="Path_3156-2" class="st3" d="M6091.5,9191.5c0.2,2.4,2.1,4.4,4.5,4.6l0,0c0.4,0,0.8-0.1,1-0.4l0.2-0.2
				c0.1-0.1,0.1-0.2,0.1-0.3v-0.4c0-0.1-0.1-0.2-0.1-0.2l-1.2-0.6c-0.1,0-0.2,0-0.3,0l-0.5,0.5c-0.1,0.1-0.2,0.1-0.2,0.1l0,0
				c-1-0.2-1.9-1-2.1-2.1l0,0c0-0.1,0-0.2,0.1-0.2l0.5-0.5c0.1-0.1,0.1-0.2,0-0.3l-0.6-1.2c0-0.1-0.1-0.1-0.2-0.1h-0.3
				c-0.2,0-0.3,0.1-0.4,0.2l-0.2,0.2C6091.6,9190.8,6091.5,9191.1,6091.5,9191.5L6091.5,9191.5L6091.5,9191.5z"/>
		</g>
		<g id="_597177_2_2" transform="translate(3.792 3.792)">
			<g id="Group_1644-2" transform="translate(0.009 0)">
				<path id="Path_4039-2" class="st3" d="M6097.5,9194l-1.3-1.3c-0.3-0.3-0.9-0.4-1.2,0c-0.1,0.1-0.2,0.2-0.2,0.3
					c-0.2,0.4-0.6,0.7-1,0.6c-1.1-0.4-2-1.3-2.4-2.4c-0.1-0.4,0.1-0.9,0.6-1c0.5-0.2,0.7-0.6,0.5-1.1c0-0.1-0.1-0.2-0.2-0.3
					l-1.3-1.3c-0.4-0.3-0.9-0.3-1.3,0l-0.9,0.9c-0.9,0.9,0.1,3.4,2.3,5.6c2.2,2.2,4.7,3.2,5.6,2.3l0.9-0.9
					C6097.8,9194.9,6097.8,9194.3,6097.5,9194z"/>
			</g>
		</g>
		<g id="Group_1770" transform="translate(0 4)">
			<path id="Rectangle_670" class="st7" d="M6091.1,9205.9h33c1.7,0,3,1.3,3,3v12c0,1.7-1.3,3-3,3h-33c-1.7,0-3-1.3-3-3v-12
				C6088.1,9207.2,6089.5,9205.9,6091.1,9205.9z"/>
			<g class="st11">
				<path class="st3" d="M6096.5,9210.7h2.1l2.3,7.1h-1.7l-0.5-1.6h-2.6l-0.5,1.6h-1.5L6096.5,9210.7z M6096.5,9215.2h1.9l-0.9-3.1
					L6096.5,9215.2z"/>
				<path class="st3" d="M6101.8,9212.7h1.4v0.8c0.3-0.5,0.9-0.9,1.7-0.9c1.3,0,2.3,0.9,2.3,2.7v0.1c0,1.7-1,2.7-2.3,2.7
					c-0.8,0-1.4-0.4-1.7-0.9v2.6h-1.4V9212.7z M6105.7,9215.3L6105.7,9215.3c0-1.1-0.5-1.7-1.2-1.7c-0.8,0-1.3,0.5-1.3,1.6v0.1
					c0,1,0.5,1.6,1.3,1.6C6105.3,9216.9,6105.7,9216.3,6105.7,9215.3z"/>
				<path class="st3" d="M6108.1,9212.7h1.4v0.8c0.3-0.5,0.9-0.9,1.7-0.9c1.3,0,2.3,0.9,2.3,2.7v0.1c0,1.7-1,2.7-2.3,2.7
					c-0.8,0-1.4-0.4-1.7-0.9v2.6h-1.4V9212.7z M6112.1,9215.3L6112.1,9215.3c0-1.1-0.5-1.7-1.2-1.7c-0.8,0-1.3,0.5-1.3,1.6v0.1
					c0,1,0.5,1.6,1.3,1.6C6111.6,9216.9,6112.1,9216.3,6112.1,9215.3z"/>
				<path class="st3" d="M6114.6,9210.3h1.4v7.6h-1.4V9210.3z"/>
				<path class="st3" d="M6118.9,9217.4l-2.1-4.7h1.6l1.3,3.1l1.2-3.1h1.4l-2.8,7h-1.4L6118.9,9217.4z"/>
			</g>
		</g>
	</g>
</g>
</svg>
